<svg width="80" height="84" viewBox="0 0 80 84" fill="none" xmlns="http://www.w3.org/2000/svg">
<path d="M66.7687 50.0812L41.7687 24.1223C41.5365 23.8809 41.2608 23.6895 40.9573 23.5588C40.6538 23.4282 40.3285 23.361 39.9999 23.361C39.6714 23.361 39.3461 23.4282 39.0426 23.5588C38.7391 23.6895 38.4634 23.8809 38.2312 24.1223L13.2312 50.0812C12.7621 50.5683 12.4985 51.2289 12.4985 51.9178C12.4985 52.6067 12.7621 53.2673 13.2312 53.7544C13.7003 54.2415 14.3365 54.5151 14.9999 54.5151C15.6633 54.5151 16.2996 54.2415 16.7687 53.7544L39.9999 29.6288L63.2312 53.7544C63.4635 53.9956 63.7392 54.1869 64.0427 54.3174C64.3462 54.448 64.6714 54.5151 64.9999 54.5151C65.3284 54.5151 65.6537 54.448 65.9572 54.3174C66.2607 54.1869 66.5364 53.9956 66.7687 53.7544C67.001 53.5132 67.1852 53.2269 67.3109 52.9118C67.4366 52.5966 67.5013 52.2589 67.5013 51.9178C67.5013 51.5767 67.4366 51.239 67.3109 50.9238C67.1852 50.6087 67.001 50.3224 66.7687 50.0812Z" fill="#F2F2F2"/>
</svg>
