<svg width="74" height="74" viewBox="0 0 74 74" fill="none" xmlns="http://www.w3.org/2000/svg">
<circle cx="37" cy="37" r="37" fill="black"/>
<path d="M49.1667 40.8751V29.9376L40.0521 24.8108M34.948 24.8108L25.8334 29.9376V40.8751M28.0209 44.2934L37.5 49.6251L43.3334 46.3438L46.9792 44.2934M37.5 31.3959L39.6875 32.6719L41.875 33.948V39.0521L39.6875 40.3282L37.5 41.6042L35.3125 40.3282L33.125 39.0521V33.948L35.3125 32.6719L37.5 31.3959ZM37.5 31.3959V26.2917M41.875 38.6876L46.9792 41.6042M33.125 38.6876L28.0209 41.6042" stroke="white" stroke-width="2" stroke-linecap="round" stroke-linejoin="round"/>
<path d="M37.5 26.2917C38.7081 26.2917 39.6875 25.3124 39.6875 24.1042C39.6875 22.8961 38.7081 21.9167 37.5 21.9167C36.2919 21.9167 35.3125 22.8961 35.3125 24.1042C35.3125 25.3124 36.2919 26.2917 37.5 26.2917Z" stroke="white" stroke-width="2" stroke-linecap="round" stroke-linejoin="round"/>
<path d="M25.8334 45.25C27.0415 45.25 28.0209 44.2706 28.0209 43.0625C28.0209 41.8544 27.0415 40.875 25.8334 40.875C24.6253 40.875 23.6459 41.8544 23.6459 43.0625C23.6459 44.2706 24.6253 45.25 25.8334 45.25Z" stroke="white" stroke-width="2" stroke-linecap="round" stroke-linejoin="round"/>
<path d="M49.1667 45.25C50.3749 45.25 51.3542 44.2706 51.3542 43.0625C51.3542 41.8544 50.3749 40.875 49.1667 40.875C47.9586 40.875 46.9792 41.8544 46.9792 43.0625C46.9792 44.2706 47.9586 45.25 49.1667 45.25Z" stroke="white" stroke-width="2" stroke-linecap="round" stroke-linejoin="round"/>
</svg>
