<svg width="74" height="74" viewBox="0 0 74 74" fill="none" xmlns="http://www.w3.org/2000/svg">
<circle cx="37" cy="37" r="37" fill="white"/>
<path d="M46 27H38V23C38 22.7348 37.8946 22.4804 37.7071 22.2929C37.5196 22.1054 37.2652 22 37 22C36.7348 22 36.4804 22.1054 36.2929 22.2929C36.1054 22.4804 36 22.7348 36 23V27H28C26.9391 27 25.9217 27.4214 25.1716 28.1716C24.4214 28.9217 24 29.9391 24 31V45C24 46.0609 24.4214 47.0783 25.1716 47.8284C25.9217 48.5786 26.9391 49 28 49H46C47.0609 49 48.0783 48.5786 48.8284 47.8284C49.5786 47.0783 50 46.0609 50 45V31C50 29.9391 49.5786 28.9217 48.8284 28.1716C48.0783 27.4214 47.0609 27 46 27ZM48 45C48 45.5304 47.7893 46.0391 47.4142 46.4142C47.0391 46.7893 46.5304 47 46 47H28C27.4696 47 26.9609 46.7893 26.5858 46.4142C26.2107 46.0391 26 45.5304 26 45V31C26 30.4696 26.2107 29.9609 26.5858 29.5858C26.9609 29.2107 27.4696 29 28 29H46C46.5304 29 47.0391 29.2107 47.4142 29.5858C47.7893 29.9609 48 30.4696 48 31V45ZM41.5 38H32.5C31.5717 38 30.6815 38.3687 30.0251 39.0251C29.3687 39.6815 29 40.5717 29 41.5C29 42.4283 29.3687 43.3185 30.0251 43.9749C30.6815 44.6313 31.5717 45 32.5 45H41.5C42.4283 45 43.3185 44.6313 43.9749 43.9749C44.6313 43.3185 45 42.4283 45 41.5C45 40.5717 44.6313 39.6815 43.9749 39.0251C43.3185 38.3687 42.4283 38 41.5 38ZM38 40V43H36V40H38ZM31 41.5C31 41.1022 31.158 40.7206 31.4393 40.4393C31.7206 40.158 32.1022 40 32.5 40H34V43H32.5C32.1022 43 31.7206 42.842 31.4393 42.5607C31.158 42.2794 31 41.8978 31 41.5ZM41.5 43H40V40H41.5C41.8978 40 42.2794 40.158 42.5607 40.4393C42.842 40.7206 43 41.1022 43 41.5C43 41.8978 42.842 42.2794 42.5607 42.5607C42.2794 42.842 41.8978 43 41.5 43ZM30 34.5C30 34.2033 30.088 33.9133 30.2528 33.6666C30.4176 33.42 30.6519 33.2277 30.926 33.1142C31.2001 33.0006 31.5017 32.9709 31.7926 33.0288C32.0836 33.0867 32.3509 33.2296 32.5607 33.4393C32.7704 33.6491 32.9133 33.9164 32.9712 34.2074C33.0291 34.4983 32.9994 34.7999 32.8858 35.074C32.7723 35.3481 32.58 35.5824 32.3334 35.7472C32.0867 35.912 31.7967 36 31.5 36C31.1022 36 30.7206 35.842 30.4393 35.5607C30.158 35.2794 30 34.8978 30 34.5ZM41 34.5C41 34.2033 41.088 33.9133 41.2528 33.6666C41.4176 33.42 41.6519 33.2277 41.926 33.1142C42.2001 33.0006 42.5017 32.9709 42.7926 33.0288C43.0836 33.0867 43.3509 33.2296 43.5607 33.4393C43.7704 33.6491 43.9133 33.9164 43.9712 34.2074C44.0291 34.4983 43.9993 34.7999 43.8858 35.074C43.7723 35.3481 43.58 35.5824 43.3334 35.7472C43.0867 35.912 42.7967 36 42.5 36C42.1022 36 41.7206 35.842 41.4393 35.5607C41.158 35.2794 41 34.8978 41 34.5Z" fill="black"/>
</svg>
