<svg width="74" height="74" viewBox="0 0 74 74" fill="none" xmlns="http://www.w3.org/2000/svg">
<circle cx="37" cy="37" r="37" fill="white"/>
<path d="M52 36.5C51.9987 35.1754 51.6223 33.8783 50.9144 32.7587C50.2065 31.6391 49.1961 30.7429 48 30.1738V30C47.9988 28.7115 47.5829 27.4576 46.8138 26.4239C46.0447 25.3901 44.9633 24.6314 43.7295 24.26C42.4957 23.8886 41.1751 23.9243 39.9632 24.3617C38.7512 24.7991 37.7122 25.615 37 26.6888C36.2878 25.615 35.2488 24.7991 34.0368 24.3617C32.8249 23.9243 31.5043 23.8886 30.2705 24.26C29.0367 24.6314 27.9553 25.3901 27.1862 26.4239C26.4171 27.4576 26.0012 28.7115 26 30V30.1738C24.8029 30.7414 23.7915 31.637 23.0833 32.7567C22.375 33.8763 21.9991 35.1739 21.9991 36.4987C21.9991 37.8236 22.375 39.1212 23.0833 40.2408C23.7915 41.3605 24.8029 42.2561 26 42.8237V43C26.0012 44.2885 26.4171 45.5424 27.1862 46.5761C27.9553 47.6099 29.0367 48.3686 30.2705 48.74C31.5043 49.1114 32.8249 49.0757 34.0368 48.6383C35.2488 48.2009 36.2878 47.385 37 46.3113C37.7122 47.385 38.7512 48.2009 39.9632 48.6383C41.1751 49.0757 42.4957 49.1114 43.7295 48.74C44.9633 48.3686 46.0447 47.6099 46.8138 46.5761C47.5829 45.5424 47.9988 44.2885 48 43V42.8237C49.1959 42.255 50.2062 41.3592 50.9141 40.2401C51.622 39.121 51.9985 37.8242 52 36.5ZM32 47C31.0137 46.9999 30.0622 46.6353 29.3283 45.9764C28.5944 45.3175 28.1298 44.4106 28.0237 43.43C28.3471 43.4761 28.6733 43.4995 29 43.5H30C30.2652 43.5 30.5196 43.3946 30.7071 43.2071C30.8946 43.0196 31 42.7652 31 42.5C31 42.2348 30.8946 41.9804 30.7071 41.7929C30.5196 41.6054 30.2652 41.5 30 41.5H29C27.8194 41.5014 26.6765 41.085 25.7735 40.3246C24.8705 39.5641 24.2656 38.5087 24.0661 37.3451C23.8666 36.1816 24.0852 34.9849 24.6832 33.9671C25.2813 32.9492 26.2202 32.1758 27.3337 31.7838C27.5286 31.7148 27.6973 31.5871 27.8166 31.4183C27.9359 31.2495 28 31.0479 28 30.8413V30C28 28.9391 28.4214 27.9217 29.1716 27.1716C29.9217 26.4214 30.9391 26 32 26C33.0609 26 34.0783 26.4214 34.8284 27.1716C35.5786 27.9217 36 28.9391 36 30V38.5325C34.9019 37.5449 33.4769 36.9989 32 37C31.7348 37 31.4804 37.1054 31.2929 37.2929C31.1054 37.4804 31 37.7348 31 38C31 38.2652 31.1054 38.5196 31.2929 38.7071C31.4804 38.8946 31.7348 39 32 39C33.0609 39 34.0783 39.4214 34.8284 40.1716C35.5786 40.9217 36 41.9391 36 43C36 44.0609 35.5786 45.0783 34.8284 45.8284C34.0783 46.5786 33.0609 47 32 47ZM45 41.5H44C43.7348 41.5 43.4804 41.6054 43.2929 41.7929C43.1054 41.9804 43 42.2348 43 42.5C43 42.7652 43.1054 43.0196 43.2929 43.2071C43.4804 43.3946 43.7348 43.5 44 43.5H45C45.3267 43.4995 45.6529 43.4761 45.9762 43.43C45.8932 44.1983 45.5893 44.9262 45.1014 45.5255C44.6134 46.1248 43.9624 46.5699 43.2268 46.807C42.4913 47.0442 41.7028 47.0632 40.9567 46.8617C40.2106 46.6603 39.5389 46.247 39.0227 45.6719C38.5065 45.0967 38.1679 44.3844 38.0479 43.621C37.928 42.8575 38.0317 42.0757 38.3466 41.3699C38.6616 40.6642 39.1742 40.0648 39.8225 39.6442C40.4709 39.2237 41.2272 38.9999 42 39C42.2652 39 42.5196 38.8946 42.7071 38.7071C42.8946 38.5196 43 38.2652 43 38C43 37.7348 42.8946 37.4804 42.7071 37.2929C42.5196 37.1054 42.2652 37 42 37C40.5231 36.9989 39.0981 37.5449 38 38.5325V30C38 28.9391 38.4214 27.9217 39.1716 27.1716C39.9217 26.4214 40.9391 26 42 26C43.0609 26 44.0783 26.4214 44.8284 27.1716C45.5786 27.9217 46 28.9391 46 30V30.8413C46 31.0479 46.0641 31.2495 46.1834 31.4183C46.3027 31.5871 46.4714 31.7148 46.6663 31.7838C47.7798 32.1758 48.7187 32.9492 49.3168 33.9671C49.9148 34.9849 50.1334 36.1816 49.9339 37.3451C49.7344 38.5087 49.1295 39.5641 48.2265 40.3246C47.3235 41.085 46.1806 41.5014 45 41.5ZM47 35C47 35.2652 46.8946 35.5196 46.7071 35.7071C46.5196 35.8946 46.2652 36 46 36H45.5C44.3065 36 43.1619 35.5259 42.318 34.682C41.4741 33.8381 41 32.6935 41 31.5V31C41 30.7348 41.1054 30.4804 41.2929 30.2929C41.4804 30.1054 41.7348 30 42 30C42.2652 30 42.5196 30.1054 42.7071 30.2929C42.8946 30.4804 43 30.7348 43 31V31.5C43 32.163 43.2634 32.7989 43.7322 33.2678C44.2011 33.7366 44.837 34 45.5 34H46C46.2652 34 46.5196 34.1054 46.7071 34.2929C46.8946 34.4804 47 34.7348 47 35ZM28.5 36H28C27.7348 36 27.4804 35.8946 27.2929 35.7071C27.1054 35.5196 27 35.2652 27 35C27 34.7348 27.1054 34.4804 27.2929 34.2929C27.4804 34.1054 27.7348 34 28 34H28.5C29.163 34 29.7989 33.7366 30.2678 33.2678C30.7366 32.7989 31 32.163 31 31.5V31C31 30.7348 31.1054 30.4804 31.2929 30.2929C31.4804 30.1054 31.7348 30 32 30C32.2652 30 32.5196 30.1054 32.7071 30.2929C32.8946 30.4804 33 30.7348 33 31V31.5C33 32.6935 32.5259 33.8381 31.682 34.682C30.8381 35.5259 29.6935 36 28.5 36Z" fill="black"/>
</svg>
