<svg width="74" height="74" viewBox="0 0 74 74" fill="none" xmlns="http://www.w3.org/2000/svg">
<circle cx="37" cy="37" r="37" fill="white"/>
<path d="M48 42.0583V31.9417C48.0008 31.5514 47.8994 31.1676 47.7058 30.8287C47.5122 30.4897 47.2332 30.2074 46.8966 30.0098L38.0725 24.9138C37.7464 24.7255 37.3765 24.6264 37 24.6264C36.6235 24.6264 36.2536 24.7255 35.9275 24.9138L27.1052 30.0098C26.7682 30.2072 26.4888 30.4894 26.2949 30.8284C26.101 31.1673 25.9993 31.5512 26 31.9417V42.0583C25.9992 42.4486 26.1006 42.8324 26.2942 43.1713C26.4878 43.5103 26.7668 43.7926 27.1034 43.9902L35.9275 49.0863C36.2536 49.2743 36.6235 49.3734 37 49.3734C37.3765 49.3734 37.7464 49.2743 38.0725 49.0863L46.8948 43.9902C47.2318 43.7928 47.5112 43.5106 47.7051 43.1716C47.899 42.8327 48.0007 42.4488 48 42.0583ZM37 27.4695L43.9764 31.5L37 35.527L30.0236 31.5L37 27.4695ZM28.75 33.9389L35.625 37.9092V45.7364L28.75 41.7661V33.9389ZM38.375 45.7364V37.9092L45.25 33.9389V41.7661L38.375 45.7364ZM54.875 23.25V30.125C54.875 30.4897 54.7301 30.8394 54.4723 31.0973C54.2144 31.3551 53.8647 31.5 53.5 31.5C53.1353 31.5 52.7856 31.3551 52.5277 31.0973C52.2699 30.8394 52.125 30.4897 52.125 30.125V24.625H46.625C46.2603 24.625 45.9106 24.4801 45.6527 24.2223C45.3949 23.9644 45.25 23.6147 45.25 23.25C45.25 22.8853 45.3949 22.5356 45.6527 22.2777C45.9106 22.0199 46.2603 21.875 46.625 21.875H53.5C53.8647 21.875 54.2144 22.0199 54.4723 22.2777C54.7301 22.5356 54.875 22.8853 54.875 23.25ZM28.75 50.75C28.75 51.1147 28.6051 51.4644 28.3473 51.7223C28.0894 51.9801 27.7397 52.125 27.375 52.125H20.5C20.1353 52.125 19.7856 51.9801 19.5277 51.7223C19.2699 51.4644 19.125 51.1147 19.125 50.75V43.875C19.125 43.5103 19.2699 43.1606 19.5277 42.9027C19.7856 42.6449 20.1353 42.5 20.5 42.5C20.8647 42.5 21.2144 42.6449 21.4723 42.9027C21.7301 43.1606 21.875 43.5103 21.875 43.875V49.375H27.375C27.7397 49.375 28.0894 49.5199 28.3473 49.7777C28.6051 50.0356 28.75 50.3853 28.75 50.75ZM54.875 43.875V50.75C54.875 51.1147 54.7301 51.4644 54.4723 51.7223C54.2144 51.9801 53.8647 52.125 53.5 52.125H46.625C46.2603 52.125 45.9106 51.9801 45.6527 51.7223C45.3949 51.4644 45.25 51.1147 45.25 50.75C45.25 50.3853 45.3949 50.0356 45.6527 49.7777C45.9106 49.5199 46.2603 49.375 46.625 49.375H52.125V43.875C52.125 43.5103 52.2699 43.1606 52.5277 42.9027C52.7856 42.6449 53.1353 42.5 53.5 42.5C53.8647 42.5 54.2144 42.6449 54.4723 42.9027C54.7301 43.1606 54.875 43.5103 54.875 43.875ZM19.125 30.125V23.25C19.125 22.8853 19.2699 22.5356 19.5277 22.2777C19.7856 22.0199 20.1353 21.875 20.5 21.875H27.375C27.7397 21.875 28.0894 22.0199 28.3473 22.2777C28.6051 22.5356 28.75 22.8853 28.75 23.25C28.75 23.6147 28.6051 23.9644 28.3473 24.2223C28.0894 24.4801 27.7397 24.625 27.375 24.625H21.875V30.125C21.875 30.4897 21.7301 30.8394 21.4723 31.0973C21.2144 31.3551 20.8647 31.5 20.5 31.5C20.1353 31.5 19.7856 31.3551 19.5277 31.0973C19.2699 30.8394 19.125 30.4897 19.125 30.125Z" fill="#333333"/>
</svg>
