<svg width="74" height="74" viewBox="0 0 74 74" fill="none" xmlns="http://www.w3.org/2000/svg">
<circle cx="37" cy="37" r="37" fill="black"/>
<path d="M42.8288 31.1713C42.4962 29.3802 41.6807 27.7139 40.4703 26.3525C39.2598 24.991 37.7005 23.9861 35.9607 23.4461C34.2208 22.9062 32.3665 22.8518 30.598 23.2888C28.8294 23.7258 27.2139 24.6376 25.9257 25.9258C24.6376 27.2139 23.7258 28.8295 23.2888 30.598C22.8518 32.3665 22.9062 34.2208 23.4461 35.9607C23.986 37.7006 24.991 39.2599 26.3525 40.4703C27.7139 41.6807 29.3801 42.4962 31.1713 42.8288C31.5038 44.6199 32.3193 46.2861 33.5297 47.6476C34.7402 49.009 36.2995 50.014 38.0393 50.5539C39.7792 51.0939 41.6335 51.1483 43.402 50.7113C45.1706 50.2743 46.7861 49.3625 48.0743 48.0743C49.3624 46.7862 50.2742 45.1706 50.7112 43.4021C51.1482 41.6335 51.0938 39.7792 50.5539 38.0394C50.014 36.2995 49.009 34.7402 47.6475 33.5298C46.2861 32.3194 44.6199 31.5038 42.8288 31.1713ZM49 41C49 41.19 48.9913 41.375 48.9775 41.5638L42.7275 35.3138C42.8899 34.6372 42.9812 33.9456 43 33.25C44.7167 33.6957 46.2371 34.6984 47.3229 36.1008C48.4087 37.5033 48.9985 39.2264 49 41ZM47.3162 45.9013L40.7388 39.325C41.2247 38.7311 41.6412 38.0836 41.98 37.395L48.4625 43.875C48.1813 44.6027 47.7951 45.2854 47.3162 45.9013ZM43.875 48.4625L37.3925 41.98C38.0811 41.6412 38.7286 41.2248 39.3225 40.7388L45.8988 47.3163C45.2836 47.7949 44.6018 48.1811 43.875 48.4625ZM26.6838 28.0988L33.2612 34.675C32.7753 35.2689 32.3588 35.9165 32.02 36.605L25.5375 30.125C25.8187 29.3973 26.2049 28.7147 26.6838 28.0988ZM30.125 25.5375L36.6075 32.02C35.9189 32.3588 35.2714 32.7753 34.6775 33.2613L28.0988 26.6838C28.7147 26.2049 29.3973 25.8188 30.125 25.5375ZM41 33C40.9977 35.1211 40.1541 37.1545 38.6543 38.6543C37.1545 40.1541 35.121 40.9977 33 41C33.0023 38.879 33.8459 36.8455 35.3457 35.3457C36.8455 33.8459 38.879 33.0024 41 33ZM40.75 31C40.0555 31.0169 39.3647 31.1062 38.6887 31.2663L32.4388 25.0163C32.625 25.0088 32.81 25 33 25C34.7745 25.0019 36.4982 25.5926 37.9008 26.6796C39.3033 27.7666 40.3055 29.2884 40.75 31.0063V31ZM25 33C25 32.81 25.0088 32.625 25.0225 32.4363L31.2725 38.6863C31.1122 39.3631 31.023 40.0547 31.0063 40.75C29.2883 40.3055 27.7666 39.3034 26.6796 37.9008C25.5926 36.4982 25.0018 34.7745 25 33ZM33.25 43C33.9445 42.9831 34.6353 42.8939 35.3112 42.7338L41.5613 48.9838C41.375 48.9975 41.1862 49.0063 40.9975 49.0063C39.2234 49.0039 37.5003 48.4129 36.0982 47.326C34.6962 46.239 33.6944 44.7175 33.25 43Z" fill="white"/>
</svg>
