<svg width="74" height="74" viewBox="0 0 74 74" fill="none" xmlns="http://www.w3.org/2000/svg">
<circle cx="37" cy="37" r="37" fill="white"/>
<path d="M46.1925 27.8074C43.7545 25.3694 40.4478 23.9998 37 23.9998C33.5521 23.9998 30.2455 25.3694 27.8075 27.8074C25.3695 30.2454 23.9998 33.5521 23.9998 36.9999C23.9998 40.4478 25.3695 43.7544 27.8075 46.1924C30.2455 48.6304 33.5521 50.0001 37 50.0001C40.4478 50.0001 43.7545 48.6304 46.1925 46.1924C48.6305 43.7544 50.0001 40.4478 50.0001 36.9999C50.0001 33.5521 48.6305 30.2454 46.1925 27.8074ZM44.7787 44.7787C43.2403 46.3169 41.2803 47.3644 39.1465 47.7887C37.0128 48.213 34.8011 47.995 32.7912 47.1624C30.7813 46.3298 29.0635 44.9199 27.8548 43.111C26.6462 41.3021 26.0011 39.1754 26.0011 36.9999C26.0011 34.8244 26.6462 32.6977 27.8548 30.8888C29.0635 29.0799 30.7813 27.67 32.7912 26.8374C34.8011 26.0048 37.0128 25.7869 39.1465 26.2112C41.2803 26.6355 43.2403 27.6829 44.7787 29.2212C46.8386 31.2859 47.9954 34.0834 47.9954 36.9999C47.9954 39.9165 46.8386 42.7139 44.7787 44.7787ZM36.7075 36.2924C36.8005 36.3853 36.8742 36.4956 36.9245 36.617C36.9749 36.7384 37.0008 36.8685 37.0008 36.9999C37.0008 37.1313 36.9749 37.2615 36.9245 37.3829C36.8742 37.5043 36.8005 37.6145 36.7075 37.7074L32.7075 41.7074C32.6146 41.8003 32.5043 41.874 32.3829 41.9243C32.2615 41.9746 32.1314 42.0005 32 42.0005C31.8686 42.0005 31.7385 41.9746 31.6171 41.9243C31.4957 41.874 31.3854 41.8003 31.2925 41.7074C31.1996 41.6145 31.1259 41.5042 31.0756 41.3828C31.0253 41.2614 30.9994 41.1313 30.9994 40.9999C30.9994 40.8685 31.0253 40.7384 31.0756 40.617C31.1259 40.4956 31.1996 40.3853 31.2925 40.2924L34.5862 36.9999L31.2925 33.7074C31.1048 33.5198 30.9994 33.2653 30.9994 32.9999C30.9994 32.7346 31.1048 32.4801 31.2925 32.2924C31.4801 32.1048 31.7346 31.9994 32 31.9994C32.2653 31.9994 32.5198 32.1048 32.7075 32.2924L36.7075 36.2924ZM43.7075 36.2924C43.8005 36.3853 43.8742 36.4956 43.9245 36.617C43.9749 36.7384 44.0008 36.8685 44.0008 36.9999C44.0008 37.1313 43.9749 37.2615 43.9245 37.3829C43.8742 37.5043 43.8005 37.6145 43.7075 37.7074L39.7075 41.7074C39.5198 41.8951 39.2653 42.0005 39 42.0005C38.7346 42.0005 38.4801 41.8951 38.2925 41.7074C38.1048 41.5198 37.9994 41.2653 37.9994 40.9999C37.9994 40.7346 38.1048 40.4801 38.2925 40.2924L41.5862 36.9999L38.2925 33.7074C38.1048 33.5198 37.9994 33.2653 37.9994 32.9999C37.9994 32.7346 38.1048 32.4801 38.2925 32.2924C38.4801 32.1048 38.7346 31.9994 39 31.9994C39.2653 31.9994 39.5198 32.1048 39.7075 32.2924L43.7075 36.2924Z" fill="black"/>
</svg>
