<svg width="74" height="74" viewBox="0 0 74 74" fill="none" xmlns="http://www.w3.org/2000/svg">
<circle cx="37" cy="37" r="37" fill="black"/>
<path d="M30 37C30.0071 39.6231 29.401 42.2115 28.23 44.5588C28.1741 44.6804 28.0943 44.7897 27.9954 44.8799C27.8965 44.9702 27.7805 45.0397 27.6542 45.0843C27.5279 45.1289 27.394 45.1477 27.2603 45.1395C27.1266 45.1313 26.996 45.0964 26.876 45.0368C26.7561 44.9772 26.6494 44.8941 26.5622 44.7924C26.475 44.6908 26.4092 44.5726 26.3685 44.445C26.3278 44.3175 26.3132 44.183 26.3255 44.0496C26.3377 43.9163 26.3767 43.7868 26.44 43.6688C27.4725 41.5977 28.0067 39.3141 28 37C27.9976 35.6506 28.2999 34.318 28.8843 33.1016C29.4686 31.8853 30.32 30.8165 31.375 29.975C31.582 29.8092 31.8464 29.7325 32.11 29.7617C32.3736 29.7909 32.6148 29.9236 32.7806 30.1306C32.9464 30.3377 33.0231 30.6021 32.9939 30.8657C32.9647 31.1293 32.832 31.3705 32.625 31.5363C31.8043 32.1906 31.142 33.0218 30.6874 33.9678C30.2329 34.9139 29.9979 35.9504 30 37ZM37 36C36.7348 36 36.4804 36.1054 36.2929 36.2929C36.1053 36.4804 36 36.7348 36 37C35.9998 40.896 35.0105 44.7282 33.125 48.1375C32.9963 48.3696 32.9652 48.6432 33.0383 48.8983C33.1114 49.1533 33.2829 49.3689 33.515 49.4975C33.747 49.6261 34.0207 49.6573 34.2757 49.5842C34.5308 49.511 34.7463 49.3396 34.875 49.1075C36.9245 45.4011 37.9997 41.2353 38 37C38 36.7348 37.8946 36.4804 37.7071 36.2929C37.5195 36.1054 37.2652 36 37 36ZM37 32C35.6739 32 34.4021 32.5268 33.4644 33.4645C32.5268 34.4021 32 35.6739 32 37C32 37.2652 32.1053 37.5196 32.2929 37.7071C32.4804 37.8946 32.7348 38 33 38C33.2652 38 33.5195 37.8946 33.7071 37.7071C33.8946 37.5196 34 37.2652 34 37C34 36.2044 34.316 35.4413 34.8787 34.8787C35.4413 34.3161 36.2043 34 37 34C37.7956 34 38.5587 34.3161 39.1213 34.8787C39.6839 35.4413 40 36.2044 40 37C40.0103 40.9762 39.1345 44.9047 37.4362 48.5C37.3802 48.6191 37.3481 48.7481 37.3419 48.8795C37.3357 49.011 37.3554 49.1424 37.4 49.2663C37.4446 49.3901 37.5131 49.504 37.6017 49.6014C37.6902 49.6987 37.7971 49.7777 37.9162 49.8337C38.0353 49.8898 38.1643 49.9219 38.2958 49.9281C38.4272 49.9343 38.5587 49.9146 38.6825 49.87C38.8064 49.8254 38.9202 49.7569 39.0176 49.6683C39.115 49.5797 39.1939 49.4728 39.25 49.3538C41.0729 45.4912 42.0123 41.2711 42 37C42 35.6739 41.4732 34.4021 40.5355 33.4645C39.5978 32.5268 38.3261 32 37 32ZM37 24C33.5533 24.0036 30.2488 25.3744 27.8116 27.8116C25.3744 30.2488 24.0036 33.5533 24 37C24.0018 38.2487 23.7905 39.4886 23.375 40.6663C23.2866 40.9164 23.3013 41.1914 23.4157 41.4307C23.5301 41.6701 23.7348 41.8541 23.985 41.9425C24.2351 42.0308 24.5101 42.0162 24.7494 41.9018C24.9888 41.7874 25.1729 41.5826 25.2612 41.3325C25.7518 39.9408 26.0016 38.4756 26 37C26 34.0826 27.1589 31.2847 29.2218 29.2218C31.2847 27.1589 34.0826 26 37 26C39.9174 26 42.7153 27.1589 44.7782 29.2218C46.8411 31.2847 48 34.0826 48 37C48.0005 39.2848 47.779 41.5643 47.3387 43.8062C47.3133 43.9351 47.3134 44.0677 47.3392 44.1965C47.365 44.3253 47.4159 44.4478 47.4891 44.5569C47.5622 44.666 47.6561 44.7596 47.7654 44.8325C47.8748 44.9053 47.9974 44.9558 48.1262 44.9813C48.1901 44.9936 48.2549 44.9999 48.32 45C48.5514 44.9998 48.7755 44.9193 48.9543 44.7722C49.133 44.6252 49.2551 44.4208 49.3 44.1938C49.7657 41.8242 50.0001 39.4149 50 37C49.996 33.5534 48.6251 30.2491 46.188 27.812C43.7509 25.3749 40.4466 24.004 37 24ZM32.8 40.0212C32.5406 39.9697 32.2714 40.0229 32.0512 40.1693C31.831 40.3157 31.6777 40.5434 31.625 40.8025C31.2192 42.7995 30.4927 44.7177 29.4737 46.4825C29.3411 46.7122 29.3052 46.9853 29.3739 47.2415C29.4426 47.4977 29.6102 47.7161 29.84 47.8487C30.0697 47.9814 30.3427 48.0173 30.599 47.9486C30.8552 47.8799 31.0736 47.7122 31.2062 47.4825C32.3323 45.531 33.1344 43.4097 33.5812 41.2013C33.6075 41.0725 33.6081 40.9398 33.5831 40.8107C33.558 40.6817 33.5078 40.5589 33.4352 40.4493C33.3627 40.3397 33.2692 40.2455 33.1602 40.172C33.0512 40.0986 32.9288 40.0473 32.8 40.0212ZM37 28C36.6239 28.0001 36.2482 28.0235 35.875 28.07C35.6167 28.1088 35.3839 28.247 35.2263 28.4552C35.0686 28.6633 34.9986 28.9249 35.0313 29.184C35.0639 29.443 35.1966 29.6791 35.401 29.8416C35.6054 30.0041 35.8652 30.0803 36.125 30.0538C37.1101 29.9313 38.1101 30.0194 39.0586 30.3123C40.0071 30.6053 40.8826 31.0964 41.6271 31.7531C42.3716 32.4098 42.9681 33.2171 43.3772 34.1216C43.7863 35.0262 43.9985 36.0073 44 37C43.9997 38.2954 43.9195 39.5895 43.76 40.875C43.7424 41.0057 43.7509 41.1386 43.785 41.2661C43.819 41.3935 43.8779 41.513 43.9583 41.6175C44.0387 41.7221 44.139 41.8097 44.2534 41.8754C44.3679 41.941 44.4941 41.9834 44.625 42C44.6665 42.005 44.7082 42.0075 44.75 42.0075C44.9932 42.007 45.2278 41.9178 45.4101 41.7568C45.5923 41.5957 45.7096 41.3738 45.74 41.1325C45.9086 39.764 45.9921 38.3863 45.99 37.0075C45.9893 34.6218 45.0425 32.3337 43.3572 30.6451C41.6719 28.9566 39.3857 28.0053 37 28ZM44.2412 44.0312C44.114 43.9984 43.9815 43.9909 43.8514 44.0092C43.7213 44.0275 43.5961 44.0713 43.4829 44.138C43.3697 44.2048 43.2708 44.2932 43.1918 44.3982C43.1128 44.5032 43.0552 44.6227 43.0225 44.75C42.84 45.4613 42.6287 46.175 42.3975 46.875C42.3129 47.1258 42.3311 47.3999 42.4483 47.6373C42.5654 47.8747 42.7719 48.0559 43.0225 48.1413C43.1251 48.1762 43.2328 48.1939 43.3412 48.1938C43.5507 48.1936 43.7549 48.1276 43.9249 48.0052C44.095 47.8827 44.2222 47.7099 44.2887 47.5112C44.5387 46.7712 44.7625 46.0112 44.9575 45.255C44.991 45.1278 44.9991 44.9952 44.9813 44.8648C44.9635 44.7345 44.9201 44.6089 44.8537 44.4954C44.7873 44.3818 44.6991 44.2825 44.5942 44.203C44.4893 44.1236 44.3698 44.0657 44.2425 44.0325L44.2412 44.0312Z" fill="white"/>
</svg>
