<svg width="70" height="59" viewBox="0 0 70 59" fill="none" xmlns="http://www.w3.org/2000/svg">
<path d="M23.2418 15.2143C20.2436 12.8082 19.7635 8.4271 22.1696 5.42885V5.42885C24.5757 2.4306 28.9568 1.95057 31.9551 4.35668L56.6907 24.2071C59.6889 26.6132 60.169 30.9943 57.7629 33.9926V33.9926C55.3567 36.9908 50.9756 37.4708 47.9774 35.0647L23.2418 15.2143Z" fill="white"/>
<path d="M31.8967 54.6992C28.8739 57.0744 24.4979 56.5492 22.1228 53.5264V53.5264C19.7477 50.5035 20.2728 46.1276 23.2957 43.7525L48.2344 24.1578C51.2573 21.7827 55.6332 22.3078 58.0083 25.3307V25.3307C60.3834 28.3536 59.8583 32.7295 56.8354 35.1046L31.8967 54.6992Z" fill="white"/>
<path d="M14 47.9162C14 52.3808 10.866 56 7 56V56C3.13401 56 -3.98787e-07 52.3808 -3.98787e-07 47.9162L-3.98787e-07 11.0838C-3.98787e-07 6.61922 3.13401 3 7 3V3C10.866 3 14 6.61922 14 11.0838L14 47.9162Z" fill="white"/>
<path d="M69.597 47.7985C69.597 52.1055 66.1055 55.597 61.7985 55.597C57.4915 55.597 54 52.1055 54 47.7985C54 43.4915 57.4915 40 61.7985 40C66.1055 40 69.597 43.4915 69.597 47.7985Z" fill="white"/>
</svg>
