<svg width="74" height="74" viewBox="0 0 74 74" fill="none" xmlns="http://www.w3.org/2000/svg">
<circle cx="37" cy="37" r="37" fill="black"/>
<path d="M30 38V47H28V38H30ZM48 38V40H46V47H44V40H42V38H48ZM37 36C38.4011 36.0075 39.7725 36.4054 40.96 37.149L42.407 35.699C40.8189 34.597 38.933 34.0044 37 34C35.0927 34.0037 33.2321 34.5899 31.667 35.68L33.116 37.133C34.2794 36.3999 35.6249 36.0074 37 36Z" fill="white"/>
<path d="M37 32C39.4624 32.0051 41.858 32.8008 43.834 34.27L45.261 32.84C42.8989 31.0026 39.9926 30.0034 37 30C34.0334 30.0038 31.1528 30.9968 28.814 32.822L30.24 34.252C32.193 32.7947 34.5633 32.0051 37 32Z" fill="white"/>
<path d="M37 28C40.5231 28.0005 43.9405 29.2035 46.687 31.41L48.114 29.981C44.9958 27.4103 41.0813 26.0031 37.0401 26C32.9989 25.9969 29.0822 27.3981 25.96 29.964L27.387 31.393C30.1104 29.1983 33.5024 28.0011 37 28ZM37 38C36.11 38 35.24 38.2639 34.5 38.7584C33.7599 39.2528 33.1832 39.9556 32.8426 40.7779C32.502 41.6002 32.4129 42.505 32.5865 43.3779C32.7601 44.2508 33.1887 45.0526 33.818 45.682C34.4474 46.3113 35.2492 46.7399 36.1221 46.9135C36.995 47.0872 37.8998 46.998 38.7221 46.6574C39.5444 46.3168 40.2472 45.7401 40.7416 45C41.2361 44.26 41.5 43.39 41.5 42.5C41.5 41.3065 41.0259 40.1619 40.182 39.318C39.3381 38.4741 38.1935 38 37 38ZM37 45C36.5056 45 36.0222 44.8534 35.6111 44.5787C35.2 44.304 34.8795 43.9135 34.6903 43.4567C34.5011 42.9999 34.4516 42.4972 34.5481 42.0123C34.6445 41.5273 34.8826 41.0818 35.2323 40.7322C35.5819 40.3826 36.0273 40.1445 36.5123 40.048C36.9972 39.9516 37.4999 40.0011 37.9567 40.1903C38.4135 40.3795 38.804 40.6999 39.0787 41.1111C39.3534 41.5222 39.5 42.0055 39.5 42.5C39.5 43.163 39.2366 43.7989 38.7678 44.2677C38.2989 44.7366 37.6631 45 37 45Z" fill="white"/>
</svg>
