<svg width="140" height="36" viewBox="0 0 140 36" fill="none" xmlns="http://www.w3.org/2000/svg">
<path d="M56.4583 14.8712C56.4564 15.2612 56.3772 15.6471 56.2252 16.0064C56.0733 16.3657 55.8516 16.6915 55.5729 16.9649C55.2942 17.2383 54.9641 17.454 54.6016 17.5994C54.239 17.7449 53.8512 17.8172 53.4605 17.8124H50.5142V32.6229C50.5135 33.4027 50.2028 34.1504 49.6504 34.7018C49.098 35.2532 48.3491 35.5633 47.5679 35.5641C46.7813 35.5654 46.0257 35.2576 45.4647 34.7072C44.9037 34.1568 44.5822 33.4081 44.5699 32.6229V17.8135H43.0967C42.3156 17.8126 41.5667 17.5024 41.0143 16.951C40.462 16.3997 40.1513 15.6521 40.1504 14.8723C40.1491 14.0871 40.4574 13.3329 41.0088 12.7728C41.5602 12.2128 42.3102 11.8919 43.0967 11.8796H44.5699V8.93844C44.6041 7.45662 44.9688 6.00106 45.6375 4.67766C47.1106 1.68519 49.9052 0.0620117 53.4622 0.0620117C54.2505 0.0620117 55.0066 0.374629 55.564 0.931092C56.1214 1.48755 56.4346 2.24228 56.4346 3.02923C56.4346 3.81619 56.1214 4.57091 55.564 5.12738C55.0066 5.68384 54.2505 5.99646 53.4622 5.99646C51.8867 5.99646 51.328 6.60522 51.0231 7.21371C50.7183 7.73977 50.5442 8.33109 50.5153 8.93816V11.8793H53.4616C54.2564 11.8804 55.0183 12.1961 55.5802 12.7571C56.1422 13.3181 56.4583 14.0787 56.4593 14.8721" fill="white"/>
<path d="M66.4684 3.00326V32.6239C66.4608 33.4059 66.1443 34.1533 65.5877 34.7036C65.031 35.2539 64.2792 35.5627 63.4958 35.5627C62.7124 35.5627 61.9606 35.2539 61.4039 34.7036C60.8473 34.1533 60.5308 33.4059 60.5232 32.6239V3.00326C60.5308 2.22123 60.8473 1.47381 61.4039 0.92349C61.9606 0.373171 62.7124 0.0644531 63.4958 0.0644531C64.2792 0.0644531 65.031 0.373171 65.5877 0.92349C66.1443 1.47381 66.4608 2.22123 66.4684 3.00326Z" fill="white"/>
<path d="M94.2624 23.748C94.2574 26.0883 93.5579 28.3747 92.2523 30.3185C90.9467 32.2623 89.0935 33.7764 86.9266 34.6697C84.7597 35.563 82.3762 35.7954 80.0771 35.3376C77.778 34.8798 75.6662 33.7523 74.0085 32.0975C72.3507 30.4426 71.2213 28.3346 70.7627 26.0395C70.3041 23.7445 70.5369 21.3652 71.4317 19.2021C72.3266 17.039 73.8434 15.189 75.7906 13.8857C77.7378 12.5824 80.0282 11.8841 82.3726 11.8792C85.5256 11.8804 88.5491 13.1313 90.7786 15.3569C93.0081 17.5824 94.2612 20.6006 94.2624 23.748ZM88.3175 23.748C88.3227 22.5791 87.9804 21.4349 87.3341 20.4601C86.6878 19.4853 85.7664 18.7237 84.6865 18.2717C83.6066 17.8197 82.4166 17.6975 81.2671 17.9206C80.1176 18.1438 79.0603 18.7021 78.2287 19.5252C77.3971 20.3482 76.8287 21.3989 76.5954 22.5445C76.3621 23.69 76.4743 24.8788 76.9179 25.9607C77.3614 27.0425 78.1164 27.9688 79.0874 28.6223C80.0583 29.2758 81.2016 29.6271 82.3726 29.632C83.9425 29.6385 85.4508 29.0223 86.5656 27.9189C87.6804 26.8154 88.3106 25.3152 88.3175 23.748Z" fill="white"/>
<path d="M98.3275 23.748C98.3275 17.2048 103.307 11.8792 109.455 11.8792C111.041 11.8816 112.605 12.246 114.028 12.9444C114.535 13.1714 114.965 13.5425 115.263 14.0114C115.561 14.4803 115.715 15.0264 115.704 15.5817C115.706 16.0228 115.601 16.4578 115.399 16.85C115.168 17.3587 114.797 17.7913 114.329 18.0968C113.861 18.4022 113.316 18.5679 112.756 18.5744C112.315 18.5702 111.881 18.4658 111.486 18.2692C110.851 17.9686 110.157 17.8127 109.454 17.8128C106.608 17.8128 104.271 20.4504 104.271 23.7472C104.271 26.9936 106.609 29.6312 109.454 29.6312C110.157 29.631 110.851 29.475 111.486 29.1744C111.866 28.9938 112.284 28.9069 112.705 28.9208C113.267 28.9161 113.818 29.071 114.295 29.3674C114.772 29.6638 115.155 30.0895 115.398 30.5948C115.601 30.9868 115.706 31.4216 115.704 31.8625C115.709 32.4232 115.554 32.9737 115.257 33.4497C114.96 33.9257 114.533 34.3076 114.027 34.5509C112.593 35.21 111.034 35.5559 109.455 35.5653C103.306 35.5653 98.3271 30.2394 98.3271 23.7469" fill="white"/>
<path d="M138.165 30.4931C138.45 30.7681 138.675 31.0998 138.823 31.4668C138.972 31.8338 139.042 32.2279 139.029 32.6235C139.029 33.2055 138.856 33.7744 138.532 34.2584C138.209 34.7423 137.748 35.1195 137.21 35.3421C136.671 35.5648 136.078 35.6229 135.506 35.5091C134.935 35.3954 134.41 35.1149 133.998 34.7031L125.715 26.4346V32.6221C125.702 33.4073 125.381 34.1561 124.82 34.7065C124.259 35.2569 123.503 35.5647 122.717 35.5633C121.935 35.5625 121.186 35.2523 120.634 34.7009C120.082 34.1495 119.771 33.4019 119.77 32.6221V3.00291C119.771 2.22312 120.082 1.4755 120.634 0.924103C121.186 0.372708 121.935 0.0625803 122.717 0.0617724C123.503 0.0603642 124.259 0.368155 124.82 0.918566C125.381 1.46898 125.702 2.21775 125.715 3.00291V21.0091L133.998 12.7406C134.274 12.475 134.601 12.2665 134.959 12.1273C135.317 11.9881 135.698 11.9208 136.082 11.9293C136.855 11.9218 137.602 12.2124 138.166 12.7406C138.71 13.318 139.018 14.0781 139.029 14.871C139.027 15.6512 138.717 16.3991 138.166 16.952L131.356 23.7499L138.165 30.4931Z" fill="white"/>
<path d="M36.0842 12.617V3.17895C36.0842 2.76049 36.0014 2.34616 35.8406 1.95971C35.6798 1.57326 35.4441 1.2223 35.1472 0.92696C34.8502 0.63162 34.4978 0.397712 34.11 0.238647C33.7223 0.0795808 33.3069 -0.00151253 32.8877 2.13599e-05L23.477 0.0352635C22.6372 0.0456034 21.8355 0.386708 21.2464 0.984311C20.6574 1.58191 20.3286 2.38762 20.3318 3.22602C20.335 4.06442 20.6699 4.86761 21.2635 5.46073C21.8571 6.05385 22.6613 6.38887 23.5012 6.39284L26.4951 6.38174C26.9142 6.38013 27.3296 6.46116 27.7174 6.62019C28.1051 6.77921 28.4576 7.01309 28.7546 7.30842C29.0516 7.60374 29.2872 7.9547 29.448 8.34115C29.6088 8.7276 29.6915 9.14194 29.6915 9.5604V12.6419C29.6916 13.2706 29.8785 13.8852 30.2284 14.4078C30.5783 14.9305 31.0757 15.3379 31.6575 15.5785C32.2394 15.819 32.8797 15.882 33.4974 15.7593C34.115 15.6367 34.6824 15.3339 35.1278 14.8894L35.1517 14.8655C35.4473 14.5704 35.6818 14.22 35.8418 13.8344C36.0019 13.4488 36.0842 13.0355 36.0842 12.6181" fill="white"/>
<path d="M32.2723 32.4943V23.0551C32.2723 22.6367 32.1896 22.2223 32.0288 21.8359C31.8681 21.4494 31.6324 21.0984 31.3354 20.8031C31.0384 20.5078 30.686 20.2739 30.2982 20.1149C29.9104 19.9559 29.495 19.8748 29.0758 19.8765L19.6654 19.9115C18.8256 19.9218 18.0239 20.2628 17.4348 20.8604C16.8457 21.4579 16.5169 22.2636 16.52 23.1019C16.5232 23.9403 16.8579 24.7435 17.4514 25.3367C18.0449 25.9298 18.8492 26.265 19.689 26.269L22.6832 26.2579C23.1023 26.2564 23.5177 26.3374 23.9054 26.4965C24.2932 26.6555 24.6456 26.8894 24.9426 27.1847C25.2396 27.48 25.4752 27.831 25.636 28.2174C25.7968 28.6038 25.8796 29.0181 25.8796 29.4366V32.5184C25.8797 33.1471 26.0666 33.7616 26.4165 34.2843C26.7664 34.807 27.2638 35.2144 27.8457 35.455C28.4275 35.6955 29.0678 35.7584 29.6855 35.6358C30.3031 35.5131 30.8705 35.2104 31.3159 34.7659L31.3398 34.742C31.9368 34.1459 32.2722 33.3372 32.2723 32.4943Z" fill="white"/>
<path d="M15.7526 16.0031V6.56393C15.7526 6.14548 15.6698 5.73114 15.509 5.34469C15.3483 4.95824 15.1126 4.60729 14.8156 4.31196C14.5186 4.01664 14.1662 3.78275 13.7784 3.62372C13.3907 3.4647 12.9753 3.38367 12.5561 3.38528L3.1454 3.42024C2.3056 3.43054 1.50388 3.77159 0.914774 4.36914C0.325673 4.96668 -0.00309364 5.77234 2.19434e-05 6.61072C0.00313753 7.4491 0.337908 8.2523 0.931434 8.84547C1.52496 9.43864 2.3292 9.77374 3.16905 9.77782L6.16289 9.76672C6.58209 9.76508 6.99746 9.84609 7.38522 10.0051C7.77298 10.1641 8.12547 10.398 8.42246 10.6933C8.71945 10.9886 8.95511 11.3396 9.11589 11.7261C9.27666 12.1125 9.35941 12.5269 9.35937 12.9454V16.0269C9.35946 16.6556 9.54627 17.2701 9.89621 17.7928C10.2462 18.3155 10.7435 18.7229 11.3254 18.9635C11.9072 19.204 12.5475 19.2669 13.1652 19.1443C13.7828 19.0216 14.3503 18.7189 14.7956 18.2744L14.8198 18.2508C15.4169 17.6547 15.7524 16.846 15.7526 16.0031Z" fill="white"/>
</svg>
