<svg width="74" height="74" viewBox="0 0 74 74" fill="none" xmlns="http://www.w3.org/2000/svg">
<circle cx="37" cy="37" r="37" fill="white"/>
<path d="M51.7075 30.2926L47.7075 26.2926C47.5199 26.1049 47.2654 25.9995 47 25.9995C46.7346 25.9995 46.4801 26.1049 46.2925 26.2926C46.1049 26.4802 45.9994 26.7347 45.9994 27.0001C45.9994 27.2654 46.1049 27.5199 46.2925 27.7076L48.5862 30.0001H45C43.7749 30.0445 42.5706 30.3304 41.4562 30.8413C39.7537 31.6276 37.6025 33.3051 37.0137 36.8413C36.3487 40.8338 33.3762 41.7438 31.8887 41.9488C31.6265 40.7382 30.9241 39.668 29.9178 38.9456C28.9115 38.2232 27.6728 37.9002 26.4419 38.0389C25.211 38.1777 24.0754 38.7685 23.2552 39.6968C22.435 40.6251 21.9885 41.8248 22.0024 43.0635C22.0163 44.3022 22.4895 45.4916 23.3303 46.4013C24.1711 47.3109 25.3197 47.8761 26.5534 47.9873C27.7872 48.0985 29.0182 47.7477 30.0081 47.003C30.998 46.2582 31.6762 45.1725 31.9112 43.9563C32.8103 43.8538 33.6886 43.6157 34.5162 43.2501C36.2187 42.5001 38.375 40.8251 38.9862 37.1638C39.8312 32.0963 44.7925 32.0001 45 32.0001H48.5862L46.2925 34.2926C46.1049 34.4802 45.9994 34.7347 45.9994 35.0001C45.9994 35.2654 46.1049 35.5199 46.2925 35.7076C46.4801 35.8952 46.7346 36.0006 47 36.0006C47.2654 36.0006 47.5199 35.8952 47.7075 35.7076L51.7075 31.7076C51.8005 31.6147 51.8742 31.5044 51.9246 31.383C51.9749 31.2616 52.0008 31.1315 52.0008 31.0001C52.0008 30.8687 51.9749 30.7385 51.9246 30.6171C51.8742 30.4957 51.8005 30.3854 51.7075 30.2926ZM27 46.0001C26.4067 46.0001 25.8266 45.8241 25.3333 45.4945C24.8399 45.1648 24.4554 44.6963 24.2284 44.1481C24.0013 43.5999 23.9419 42.9967 24.0576 42.4148C24.1734 41.8329 24.4591 41.2983 24.8787 40.8787C25.2982 40.4592 25.8328 40.1735 26.4147 40.0577C26.9967 39.942 27.5999 40.0014 28.148 40.2284C28.6962 40.4555 29.1648 40.84 29.4944 41.3334C29.8241 41.8267 30 42.4067 30 43.0001C30 43.7957 29.6839 44.5588 29.1213 45.1214C28.5587 45.684 27.7956 46.0001 27 46.0001Z" fill="black"/>
</svg>
