<svg width="74" height="74" viewBox="0 0 74 74" fill="none" xmlns="http://www.w3.org/2000/svg">
<circle cx="37" cy="37" r="37" fill="black"/>
<path d="M31 43.0001C31 43.2968 30.912 43.5868 30.7472 43.8335C30.5824 44.0801 30.3481 44.2724 30.074 44.3859C29.7999 44.4994 29.4983 44.5292 29.2074 44.4713C28.9164 44.4134 28.6491 44.2705 28.4393 44.0608C28.2296 43.851 28.0867 43.5837 28.0288 43.2927C27.9709 43.0018 28.0007 42.7002 28.1142 42.4261C28.2277 42.152 28.42 41.9177 28.6666 41.7529C28.9133 41.5881 29.2033 41.5001 29.5 41.5001C29.8978 41.5001 30.2794 41.6581 30.5607 41.9394C30.842 42.2207 31 42.6023 31 43.0001ZM50 40.0238V46.5001C50 47.0305 49.7893 47.5392 49.4142 47.9143C49.0391 48.2894 48.5304 48.5001 48 48.5001H29.5C29.1673 48.5003 28.8353 48.4719 28.5075 48.4151C27.0775 48.1542 25.809 47.3379 24.9791 46.1445C24.1493 44.9511 23.8256 43.4777 24.0788 42.0463L27.2038 24.1551C27.2482 23.8966 27.3432 23.6494 27.4834 23.4277C27.6236 23.206 27.8062 23.0141 28.0207 22.8631C28.2352 22.7122 28.4774 22.605 28.7334 22.5479C28.9894 22.4907 29.2542 22.4847 29.5125 22.5301L36.355 23.7501C36.8756 23.8439 37.3379 24.1402 37.6406 24.5741C37.9433 25.008 38.0617 25.5441 37.97 26.0651L36.46 34.6901L44.9363 31.6251C45.4331 31.4456 45.9808 31.47 46.4598 31.693C46.9387 31.916 47.31 32.3193 47.4925 32.8151L49.875 39.3363C49.9515 39.5578 49.9937 39.7896 50 40.0238ZM32.875 43.6088L36 25.7176L29.1825 24.5001L26.0575 42.3876C25.8944 43.2974 26.0977 44.2348 26.6233 44.9953C27.1488 45.7557 27.9538 46.2773 28.8625 46.4464C29.3074 46.5261 29.7636 46.5167 30.2048 46.4186C30.646 46.3206 31.0633 46.1358 31.4325 45.8751C31.8111 45.6118 32.1336 45.2758 32.3812 44.8868C32.6289 44.4977 32.7967 44.0633 32.875 43.6088ZM34.5975 44.8751L48 40.0138L45.615 33.5001L36.0625 36.9626L34.84 43.9526C34.7857 44.2665 34.7045 44.5751 34.5975 44.8751ZM48 42.1401L35.9675 46.5001H48V42.1401Z" fill="white"/>
</svg>
