<svg width="74" height="74" viewBox="0 0 74 74" fill="none" xmlns="http://www.w3.org/2000/svg">
<circle cx="37" cy="37" r="37" fill="white"/>
<path d="M47 26H27C26.4696 26 25.9609 26.2107 25.5858 26.5858C25.2107 26.9609 25 27.4696 25 28V35.3475C25 46.5487 34.4775 50.265 36.375 50.8962C36.7803 51.0341 37.2197 51.0341 37.625 50.8962C39.525 50.265 49 46.5487 49 35.3475V28C49 27.4696 48.7893 26.9609 48.4142 26.5858C48.0391 26.2107 47.5304 26 47 26ZM47 35.3488C47 45.1512 38.7062 48.4263 37 48.9963C35.3088 48.4325 27 45.16 27 35.3488V28H47V35.3488ZM31.2925 38.7075C31.1049 38.5199 30.9994 38.2654 30.9994 38C30.9994 37.7346 31.1049 37.4801 31.2925 37.2925C31.4801 37.1049 31.7346 36.9994 32 36.9994C32.2654 36.9994 32.5199 37.1049 32.7075 37.2925L35 39.585L41.2925 33.2925C41.3854 33.1996 41.4957 33.1259 41.6171 33.0756C41.7385 33.0253 41.8686 32.9994 42 32.9994C42.1314 32.9994 42.2615 33.0253 42.3829 33.0756C42.5043 33.1259 42.6146 33.1996 42.7075 33.2925C42.8004 33.3854 42.8741 33.4957 42.9244 33.6171C42.9747 33.7385 43.0006 33.8686 43.0006 34C43.0006 34.1314 42.9747 34.2615 42.9244 34.3829C42.8741 34.5043 42.8004 34.6146 42.7075 34.7075L35.7075 41.7075C35.6146 41.8005 35.5043 41.8742 35.3829 41.9246C35.2615 41.9749 35.1314 42.0008 35 42.0008C34.8686 42.0008 34.7385 41.9749 34.6171 41.9246C34.4957 41.8742 34.3854 41.8005 34.2925 41.7075L31.2925 38.7075Z" fill="black"/>
</svg>
