<svg width="74" height="74" viewBox="0 0 74 74" fill="none" xmlns="http://www.w3.org/2000/svg">
<circle cx="37" cy="37" r="37" fill="black"/>
<path d="M49.7075 44.7075L45.7075 48.7075C45.6146 48.8005 45.5043 48.8742 45.3829 48.9246C45.2615 48.9749 45.1314 49.0008 45 49.0008C44.8686 49.0008 44.7385 48.9749 44.6171 48.9246C44.4957 48.8742 44.3854 48.8005 44.2925 48.7075L40.2925 44.7075C40.1049 44.5199 39.9994 44.2654 39.9994 44C39.9994 43.7346 40.1049 43.4801 40.2925 43.2925C40.4801 43.1049 40.7346 42.9994 41 42.9994C41.2654 42.9994 41.5199 43.1049 41.7075 43.2925L44 45.5863V38.4137L37 31.4137L30 38.4137V45.5863L32.2925 43.2925C32.4801 43.1049 32.7346 42.9994 33 42.9994C33.2654 42.9994 33.5199 43.1049 33.7075 43.2925C33.8951 43.4801 34.0006 43.7346 34.0006 44C34.0006 44.2654 33.8951 44.5199 33.7075 44.7075L29.7075 48.7075C29.6146 48.8005 29.5043 48.8742 29.3829 48.9246C29.2615 48.9749 29.1314 49.0008 29 49.0008C28.8686 49.0008 28.7385 48.9749 28.6171 48.9246C28.4957 48.8742 28.3854 48.8005 28.2925 48.7075L24.2925 44.7075C24.1996 44.6146 24.1259 44.5043 24.0756 44.3829C24.0253 44.2615 23.9995 44.1314 23.9995 44C23.9995 43.8686 24.0253 43.7385 24.0756 43.6171C24.1259 43.4957 24.1996 43.3854 24.2925 43.2925C24.4801 43.1049 24.7346 42.9994 25 42.9994C25.1314 42.9994 25.2615 43.0253 25.3829 43.0756C25.5043 43.1259 25.6146 43.1996 25.7075 43.2925L28 45.5863V38C27.9999 37.8686 28.0257 37.7385 28.0759 37.6171C28.1261 37.4958 28.1997 37.3854 28.2925 37.2925L36 29.5863V24C36 23.7348 36.1054 23.4804 36.2929 23.2929C36.4804 23.1054 36.7348 23 37 23C37.2652 23 37.5196 23.1054 37.7071 23.2929C37.8947 23.4804 38 23.7348 38 24V29.5863L45.7075 37.2925C45.8003 37.3854 45.874 37.4958 45.9241 37.6171C45.9743 37.7385 46.0001 37.8686 46 38V45.5863L48.2925 43.2925C48.4801 43.1049 48.7346 42.9994 49 42.9994C49.2654 42.9994 49.5199 43.1049 49.7075 43.2925C49.8951 43.4801 50.0006 43.7346 50.0006 44C50.0006 44.2654 49.8951 44.5199 49.7075 44.7075Z" fill="white"/>
</svg>
