<svg width="74" height="74" viewBox="0 0 74 74" fill="none" xmlns="http://www.w3.org/2000/svg">
<circle cx="37" cy="37" r="37" fill="white"/>
<path d="M45.7087 44.2962C45.8954 44.4837 46.0002 44.7374 46.0002 45.0019C46.0002 45.2664 45.8954 45.5201 45.7087 45.7075C45.5725 45.8413 42.3525 49 37 49C32.3263 49 28.9338 46.2 27 44.0187V47C27 47.2652 26.8946 47.5196 26.7071 47.7071C26.5196 47.8946 26.2652 48 26 48C25.7348 48 25.4804 47.8946 25.2929 47.7071C25.1054 47.5196 25 47.2652 25 47V41C25 40.7348 25.1054 40.4804 25.2929 40.2929C25.4804 40.1054 25.7348 40 26 40H32C32.2652 40 32.5196 40.1054 32.7071 40.2929C32.8946 40.4804 33 40.7348 33 41C33 41.2652 32.8946 41.5196 32.7071 41.7071C32.5196 41.8946 32.2652 42 32 42H27.93C29.47 43.9188 32.625 47 37 47C41.5 47 44.2675 44.3175 44.295 44.29C44.4833 44.1034 44.7381 43.9993 45.0032 44.0005C45.2683 44.0016 45.5221 44.108 45.7087 44.2962ZM48 26C47.7348 26 47.4804 26.1054 47.2929 26.2929C47.1054 26.4804 47 26.7348 47 27V29.9812C45.0662 27.8 41.6737 25 37 25C31.6475 25 28.4275 28.1588 28.2925 28.2925C28.1045 28.4798 27.9987 28.7341 27.9982 28.9995C27.9977 29.2648 28.1027 29.5195 28.29 29.7075C28.4773 29.8955 28.7316 30.0013 28.997 30.0018C29.2623 30.0023 29.517 29.8973 29.705 29.71C29.7325 29.6825 32.5 27 37 27C41.375 27 44.53 30.0812 46.07 32H42C41.7348 32 41.4804 32.1054 41.2929 32.2929C41.1054 32.4804 41 32.7348 41 33C41 33.2652 41.1054 33.5196 41.2929 33.7071C41.4804 33.8946 41.7348 34 42 34H48C48.2652 34 48.5196 33.8946 48.7071 33.7071C48.8946 33.5196 49 33.2652 49 33V27C49 26.7348 48.8946 26.4804 48.7071 26.2929C48.5196 26.1054 48.2652 26 48 26Z" fill="black"/>
</svg>
