<svg width="74" height="74" viewBox="0 0 74 74" fill="none" xmlns="http://www.w3.org/2000/svg">
<circle cx="37" cy="37" r="37" fill="black"/>
<path d="M46.0963 27.7363C43.6759 25.3395 40.4063 23.9965 37 24H36.8663C33.4417 24.0352 30.1693 25.4204 27.7602 27.8546C25.3511 30.2887 23.9998 33.5752 24 37C24 42.375 27.3225 46.8825 32.67 48.7713C33.2731 48.9839 33.9185 49.0488 34.5519 48.9606C35.1853 48.8724 35.7883 48.6335 36.3104 48.2641C36.8324 47.8948 37.2583 47.4056 37.5523 46.8376C37.8463 46.2697 37.9998 45.6395 38 45C38 44.4696 38.2107 43.9609 38.5858 43.5858C38.9609 43.2107 39.4696 43 40 43H45.7763C46.6836 43.0044 47.5652 42.6983 48.2746 42.1326C48.984 41.5669 49.4786 40.7756 49.6763 39.89C49.8998 38.9059 50.0084 37.8992 50 36.89C49.9873 35.1818 49.6357 33.4932 48.9656 31.9219C48.2955 30.3506 47.3202 28.9279 46.0963 27.7363ZM47.7213 39.45C47.6219 39.8912 47.375 40.2853 47.0214 40.5671C46.6677 40.8489 46.2285 41.0017 45.7763 41H40C38.9391 41 37.9217 41.4214 37.1716 42.1716C36.4214 42.9217 36 43.9391 36 45C35.9995 45.3195 35.9226 45.6342 35.7755 45.9178C35.6285 46.2014 35.4156 46.4456 35.1548 46.63C34.894 46.8145 34.5927 46.9338 34.2764 46.9779C33.96 47.0221 33.6376 46.9898 33.3363 46.8838C28.8113 45.2875 26 41.5 26 37C25.9998 34.1022 27.1431 31.3214 29.1815 29.2618C31.2199 27.2021 33.9886 26.03 36.8862 26H36.9987C39.8965 26.0113 42.6737 27.161 44.7315 29.2012C46.7892 31.2414 47.9627 34.0087 47.9988 36.9063C48.0062 37.7618 47.9148 38.6154 47.7262 39.45H47.7213ZM38.5 30.5C38.5 30.7967 38.412 31.0867 38.2472 31.3334C38.0824 31.58 37.8481 31.7723 37.574 31.8858C37.2999 31.9994 36.9983 32.0291 36.7074 31.9712C36.4164 31.9133 36.1491 31.7704 35.9393 31.5607C35.7296 31.3509 35.5867 31.0836 35.5288 30.7926C35.4709 30.5017 35.5006 30.2001 35.6142 29.926C35.7277 29.6519 35.92 29.4176 36.1666 29.2528C36.4133 29.088 36.7033 29 37 29C37.3978 29 37.7794 29.158 38.0607 29.4393C38.342 29.7207 38.5 30.1022 38.5 30.5ZM33 33.5C33 33.7967 32.912 34.0867 32.7472 34.3334C32.5824 34.58 32.3481 34.7723 32.074 34.8858C31.7999 34.9994 31.4983 35.0291 31.2074 34.9712C30.9164 34.9133 30.6491 34.7704 30.4393 34.5607C30.2296 34.3509 30.0867 34.0836 30.0288 33.7926C29.9709 33.5017 30.0006 33.2001 30.1142 32.926C30.2277 32.6519 30.42 32.4176 30.6666 32.2528C30.9133 32.088 31.2033 32 31.5 32C31.8978 32 32.2794 32.158 32.5607 32.4393C32.842 32.7207 33 33.1022 33 33.5ZM33 40.5C33 40.7967 32.912 41.0867 32.7472 41.3334C32.5824 41.58 32.3481 41.7723 32.074 41.8858C31.7999 41.9994 31.4983 42.0291 31.2074 41.9712C30.9164 41.9133 30.6491 41.7704 30.4393 41.5607C30.2296 41.3509 30.0867 41.0836 30.0288 40.7926C29.9709 40.5017 30.0006 40.2001 30.1142 39.926C30.2277 39.6519 30.42 39.4176 30.6666 39.2528C30.9133 39.088 31.2033 39 31.5 39C31.8978 39 32.2794 39.158 32.5607 39.4393C32.842 39.7207 33 40.1022 33 40.5ZM44 33.5C44 33.7967 43.912 34.0867 43.7472 34.3334C43.5824 34.58 43.3481 34.7723 43.074 34.8858C42.7999 34.9994 42.4983 35.0291 42.2074 34.9712C41.9164 34.9133 41.6491 34.7704 41.4393 34.5607C41.2296 34.3509 41.0867 34.0836 41.0288 33.7926C40.9709 33.5017 41.0007 33.2001 41.1142 32.926C41.2277 32.6519 41.42 32.4176 41.6666 32.2528C41.9133 32.088 42.2033 32 42.5 32C42.8978 32 43.2794 32.158 43.5607 32.4393C43.842 32.7207 44 33.1022 44 33.5Z" fill="white"/>
</svg>
