<svg width="74" height="74" viewBox="0 0 74 74" fill="none" xmlns="http://www.w3.org/2000/svg">
<circle cx="37" cy="37" r="37" fill="white"/>
<g clip-path="url(#clip0_885_106)">
<path d="M36.9706 22.8284L41.9203 27.7781L40.1525 29.5459L44.3952 33.7885L46.1629 32.0208L51.1127 36.9705L46.1629 41.9203L44.3952 40.1525L40.1525 44.3951L41.9203 46.1629L36.9706 51.1126L32.0208 46.1629L33.7886 44.3951L29.5459 40.1525L27.7782 41.9203L22.8284 36.9705L27.7782 32.0208L29.5459 33.7885L33.7886 29.5459L32.0208 27.7781L36.9706 22.8284ZM36.9706 29.8994L39.0919 27.7781L36.9706 25.6568L34.8492 27.7781L36.9706 29.8994ZM35.2028 30.9601L30.9601 35.2027L32.7279 36.9705L30.9601 38.7383L35.2028 42.9809L36.9706 41.2131L38.7383 42.9809L42.981 38.7383L41.2132 36.9705L42.981 35.2027L38.7383 30.9601L36.9706 32.7279L35.2028 30.9601ZM36.9706 44.0416L34.8492 46.1629L36.9706 48.2842L39.0919 46.1629L36.9706 44.0416ZM29.8995 36.9705L27.7782 34.8492L25.6568 36.9705L27.7782 39.0918L29.8995 36.9705ZM46.1629 34.8492L44.0416 36.9705L46.1629 39.0918L48.2843 36.9705L46.1629 34.8492Z" fill="black"/>
</g>
<defs>
<clipPath id="clip0_885_106">
<rect width="24" height="24" fill="white" transform="translate(36.9706 20) rotate(45)"/>
</clipPath>
</defs>
</svg>
