<svg width="68" height="129" viewBox="0 0 68 129" fill="none" xmlns="http://www.w3.org/2000/svg">
<path d="M28.3233 4.01474C27.9445 30.0252 28.4496 55.9094 29.586 81.9198C29.9648 89.2432 30.2173 96.5665 30.7224 103.89C30.9749 107.93 37.2881 107.93 37.0356 103.89C35.5204 78.0056 34.6365 51.9952 34.6365 26.111C34.6365 18.7877 34.6366 11.4643 34.7628 4.14101C34.7628 -0.0257166 28.4496 -0.0257151 28.3233 4.01474Z" fill="white"/>
<path d="M62.3883 74.3286C55.6241 87.3338 48.3314 99.9603 40.6159 112.208C38.8192 115.112 37.0224 118.142 35.0143 120.92C34.4858 121.678 33.6403 122.94 32.7948 122.814C33.1119 122.814 32.9005 122.94 32.7948 122.688C32.6891 122.435 32.4777 122.309 32.372 122.057C31.8435 121.299 31.5265 120.415 31.1037 119.658C27.5102 112.839 23.811 106.021 20.2175 99.0764C16.0956 91.3743 11.9736 83.6722 7.95737 75.8438C6.16062 72.4346 1.61585 75.5913 3.4126 79.0004C11.2337 93.7733 19.055 108.546 26.8761 123.193C28.6729 126.602 30.998 129.885 34.6972 128.622C37.9736 127.486 39.9817 123.445 41.8842 120.415C46.0061 113.976 50.1281 107.41 54.0387 100.718C58.4777 93.0157 62.8111 85.3136 67.0387 77.359C68.7298 74.0761 64.185 70.9195 62.3883 74.3286Z" fill="white"/>
<path d="M25.3233 3.01474C24.9445 29.0252 25.4496 54.9094 26.586 80.9198C26.9648 88.2432 27.2173 95.5665 27.7224 102.89C27.9749 106.93 34.2881 106.93 34.0356 102.89C32.5204 77.0056 31.6365 50.9952 31.6365 25.111C31.6365 17.7877 31.6366 10.4643 31.7628 3.14101C31.7628 -1.02572 25.4496 -1.02572 25.3233 3.01474Z" fill="#BA68C8"/>
<path d="M59.3883 73.3286C52.6241 86.3338 45.3314 98.9603 37.6159 111.208C35.8192 114.112 34.0224 117.142 32.0143 119.92C31.4858 120.678 30.6403 121.94 29.7948 121.814C30.1119 121.814 29.9005 121.94 29.7948 121.688C29.6891 121.435 29.4777 121.309 29.372 121.057C28.8435 120.299 28.5265 119.415 28.1037 118.658C24.5102 111.839 20.811 105.021 17.2175 98.0764C13.0956 90.3743 8.97363 82.6722 4.95737 74.8438C3.16062 71.4346 -1.38415 74.5913 0.412603 78.0004C8.23374 92.7733 16.055 107.546 23.8761 122.193C25.6729 125.602 27.998 128.885 31.6972 127.622C34.9736 126.486 36.9817 122.445 38.8842 119.415C43.0061 112.976 47.1281 106.41 51.0387 99.7179C55.4777 92.0157 59.8111 84.3136 64.0387 76.359C65.7298 73.0761 61.185 69.9195 59.3883 73.3286Z" fill="#BA68C8"/>
</svg>

