<svg width="806" height="806" viewBox="0 0 806 806" fill="none" xmlns="http://www.w3.org/2000/svg">
<g clip-path="url(#clip0_419_4349)">
<g opacity="0.6">
<path opacity="0.2" d="M402.5 746C588.344 746 739 595.343 739 409.5C739 223.656 588.344 72.9995 402.5 72.9995C216.656 72.9995 66 223.656 66 409.5C66 595.343 216.656 746 402.5 746Z" fill="#BA68C8"/>
<path opacity="0.2" d="M604.5 604.5C715.785 493.215 715.785 312.785 604.5 201.5C493.215 90.2146 312.785 90.2146 201.5 201.5C90.2146 312.785 90.2146 493.215 201.5 604.5C312.785 715.785 493.215 715.785 604.5 604.5Z" fill="#BA68C8"/>
<path opacity="0.2" d="M576.795 576.795C672.78 480.811 672.78 325.189 576.795 229.205C480.811 133.22 325.189 133.22 229.204 229.205C133.22 325.189 133.22 480.811 229.204 576.795C325.189 672.78 480.811 672.78 576.795 576.795Z" fill="#BA68C8"/>
<path opacity="0.2" d="M555.102 555.103C639.107 471.099 639.107 334.901 555.102 250.897C471.098 166.893 334.9 166.893 250.896 250.897C166.892 334.901 166.892 471.099 250.896 555.103C334.9 639.107 471.098 639.107 555.102 555.103Z" fill="#BA68C8"/>
</g>
<path d="M198.372 553.4L393.301 665.852C395.969 667.204 398.918 667.909 401.91 667.909C404.901 667.909 407.851 667.204 410.519 665.852L724.994 484.503C729.752 481.76 729.752 477.31 724.994 474.567L530.065 362.1C527.395 360.748 524.443 360.043 521.449 360.043C518.455 360.043 515.503 360.748 512.833 362.1L198.372 543.449C193.614 546.223 193.614 550.642 198.372 553.4Z" fill="#6F6F6F" fill-opacity="0.3"/>
<path d="M223.245 595.278C238.16 603.98 238.16 618.137 223.245 626.793C208.331 635.449 184.144 635.495 169.229 626.793C154.314 618.092 154.299 603.934 169.229 595.278C184.159 586.622 208.331 586.576 223.245 595.278Z" fill="#1E063D" fill-opacity="0.7"/>
<path d="M202.719 535.113C202.719 539.975 206.364 543.099 210.862 545.689L395.025 651.939C397.546 653.216 400.334 653.881 403.161 653.881C405.988 653.881 408.775 653.216 411.297 651.939L708.387 480.526C712.886 477.935 716.531 474.598 716.531 469.736C716.531 464.875 712.886 461.857 708.387 459.267L524.225 353.018C521.703 351.74 518.916 351.075 516.089 351.075C513.262 351.075 510.474 351.74 507.953 353.018L210.862 524.43C206.364 527.021 202.719 530.252 202.719 535.113Z" fill="#37474F"/>
<path d="M210.862 533.818L395.025 640.067C397.546 641.344 400.333 642.01 403.161 642.01C405.988 642.01 408.775 641.344 411.297 640.067L708.387 468.654C712.886 466.064 712.886 461.857 708.387 459.267L524.225 353.018C521.703 351.74 518.916 351.075 516.089 351.075C513.262 351.075 510.474 351.74 507.953 353.018L210.862 524.43C206.364 527.021 206.364 531.227 210.862 533.818Z" fill="#455A64"/>
<path d="M403.168 642.033V653.874C400.333 653.934 397.529 653.268 395.025 651.939L210.862 545.69C206.364 543.099 202.719 539.975 202.719 535.113C202.719 530.542 205.998 527.372 210.222 524.796C206.73 527.25 206.669 531.395 210.862 533.818L395.025 640.067C397.527 641.407 400.33 642.083 403.168 642.033Z" fill="#263238"/>
<path d="M235.98 525.802L508.959 368.288C510.142 367.694 511.448 367.385 512.772 367.385C514.096 367.385 515.401 367.694 516.584 368.288L526.528 373.865C528.647 375.084 528.647 377.065 526.528 378.3L253.548 535.784C252.365 536.378 251.059 536.687 249.735 536.687C248.411 536.687 247.106 536.378 245.923 535.784L236.01 530.237C233.86 529.018 233.86 527.036 235.98 525.802Z" fill="#263238"/>
<path d="M262.804 541.651L535.784 384.136C536.844 383.534 538.029 383.186 539.247 383.12C540.464 383.054 541.68 383.272 542.799 383.755L613.835 424.719C615.589 425.725 615.36 427.538 613.179 428.757L340.52 586.059C339.461 586.663 338.276 587.014 337.059 587.083C335.842 587.151 334.625 586.936 333.505 586.455L262.149 545.644C260.38 544.699 260.685 542.84 262.804 541.651Z" fill="#263238"/>
<path d="M499.367 450.215L507.922 445.277C508.288 445.064 508.319 444.744 507.998 444.561L499.809 439.837C499.618 439.739 499.406 439.688 499.191 439.688C498.977 439.688 498.765 439.739 498.574 439.837L490.018 444.774C489.668 444.972 489.622 445.292 490.018 445.49L498.193 450.199C498.375 450.29 498.575 450.338 498.778 450.34C498.981 450.343 499.182 450.3 499.367 450.215ZM486.892 433.146L478.337 438.069C477.986 438.282 477.94 438.602 478.337 438.785L486.511 443.509C486.702 443.607 486.914 443.658 487.128 443.658C487.343 443.658 487.555 443.607 487.746 443.509L496.301 438.587C496.667 438.374 496.698 438.054 496.378 437.871L488.188 433.146C487.986 433.045 487.761 432.997 487.534 433.005C487.308 433.013 487.087 433.077 486.892 433.192V433.146ZM459.274 449.072L444.801 457.423C444.451 457.636 444.405 457.956 444.801 458.139L452.976 462.863C453.167 462.961 453.378 463.012 453.593 463.012C453.808 463.012 454.02 462.961 454.211 462.863L468.683 454.512C469.049 454.299 469.08 453.979 468.76 453.796L460.57 449.087C460.369 448.983 460.145 448.932 459.918 448.937C459.692 448.943 459.47 449.005 459.274 449.117V449.072ZM474.402 440.355L465.908 445.323C465.542 445.536 465.511 445.856 465.831 446.039L474.021 450.763C474.212 450.861 474.424 450.912 474.639 450.912C474.853 450.912 475.065 450.861 475.256 450.763L483.796 445.841C484.162 445.628 484.193 445.307 483.873 445.125L475.698 440.4C475.499 440.292 475.277 440.236 475.05 440.236C474.824 440.236 474.601 440.292 474.402 440.4V440.355ZM440.852 459.693L432.357 464.677C431.991 464.89 431.961 465.21 432.281 465.393L440.47 470.117C440.662 470.215 440.873 470.266 441.088 470.266C441.303 470.266 441.514 470.215 441.706 470.117L450.261 465.18C450.612 464.966 450.642 464.646 450.261 464.463L442.087 459.754C441.899 459.657 441.69 459.605 441.479 459.602C441.267 459.599 441.057 459.646 440.867 459.739L440.852 459.693ZM428.346 466.902L419.806 471.839C419.44 472.053 419.41 472.373 419.73 472.556L427.904 477.28C428.098 477.378 428.312 477.429 428.529 477.429C428.747 477.429 428.961 477.378 429.155 477.28L437.695 472.342C438.061 472.129 438.091 471.809 437.771 471.626L429.612 466.978C429.418 466.88 429.204 466.829 428.987 466.829C428.77 466.829 428.555 466.88 428.362 466.978L428.346 466.902ZM460.372 486.164L468.927 481.227C469.293 481.013 469.324 480.693 469.004 480.511L460.814 475.786C460.622 475.693 460.41 475.645 460.197 475.645C459.983 475.645 459.771 475.693 459.579 475.786L451.023 480.724C450.673 480.937 450.627 481.257 451.023 481.44L459.198 486.149C459.382 486.254 459.588 486.314 459.8 486.325C460.012 486.335 460.224 486.296 460.418 486.21L460.372 486.164ZM447.882 493.373L456.437 488.435C456.788 488.222 456.834 487.902 456.437 487.719L448.263 482.995C448.072 482.897 447.86 482.846 447.646 482.846C447.431 482.846 447.219 482.897 447.028 482.995L438.472 487.932C438.106 488.145 438.076 488.465 438.396 488.648L446.586 493.357C446.785 493.483 447.013 493.555 447.249 493.565C447.484 493.576 447.718 493.525 447.928 493.418L447.882 493.373ZM435.407 500.627L443.947 495.689C444.313 495.476 444.344 495.156 443.947 494.973L435.773 490.248C435.579 490.151 435.365 490.1 435.148 490.1C434.931 490.1 434.717 490.151 434.523 490.248L425.983 495.186C425.617 495.399 425.586 495.719 425.983 495.902L434.157 500.611C434.349 500.711 434.563 500.765 434.78 500.768C434.997 500.77 435.212 500.722 435.407 500.627ZM422.917 507.835L431.457 502.897C431.823 502.684 431.854 502.364 431.457 502.181L423.283 497.457C423.089 497.359 422.875 497.308 422.658 497.308C422.441 497.308 422.227 497.359 422.033 497.457L413.493 502.394C413.127 502.608 413.096 502.928 413.493 503.111L421.667 507.82C421.863 507.925 422.082 507.981 422.305 507.984C422.528 507.986 422.749 507.935 422.948 507.835H422.917ZM486.846 457.469L495.402 452.531C495.752 452.318 495.798 451.998 495.402 451.815L487.258 447.167C487.067 447.069 486.855 447.018 486.64 447.018C486.426 447.018 486.214 447.069 486.023 447.167L477.467 452.104C477.101 452.302 477.071 452.638 477.391 452.821L485.581 457.529C485.785 457.628 486.01 457.674 486.236 457.664C486.463 457.653 486.683 457.586 486.877 457.469H486.846ZM472.892 479.002L491.955 467.999C492.321 467.786 492.352 467.466 492.031 467.283L472.206 455.823C472.015 455.725 471.803 455.674 471.588 455.674C471.374 455.674 471.162 455.725 470.971 455.823L461.104 461.507C460.738 461.72 460.707 462.04 461.028 462.223L471.55 468.319C471.871 468.502 471.84 468.822 471.474 469.035L463.59 473.607C463.224 473.82 463.193 474.14 463.513 474.323L471.688 479.032C471.882 479.123 472.094 479.167 472.309 479.162C472.523 479.157 472.733 479.102 472.923 479.002H472.892ZM415.841 474.156L407.301 479.093C406.935 479.307 406.904 479.627 407.225 479.81L415.399 484.534C415.59 484.631 415.802 484.682 416.016 484.682C416.231 484.682 416.443 484.631 416.634 484.534L425.19 479.596C425.556 479.383 425.586 479.063 425.266 478.88L417.107 474.125C416.913 474.035 416.7 473.99 416.486 473.996C416.271 474.001 416.061 474.056 415.872 474.156H415.841ZM403.382 481.364L394.826 486.301C394.475 486.515 394.43 486.835 394.826 487.018L403 491.742C403.192 491.84 403.403 491.891 403.618 491.891C403.833 491.891 404.044 491.84 404.236 491.742L412.791 486.804C413.157 486.591 413.188 486.271 412.867 486.088L404.678 481.379C404.48 481.269 404.258 481.21 404.032 481.207C403.805 481.204 403.582 481.258 403.382 481.364ZM334.252 558.323C334.443 558.421 334.655 558.471 334.87 558.471C335.085 558.471 335.296 558.421 335.487 558.323L344.028 553.385C344.394 553.172 344.424 552.852 344.028 552.669L335.853 547.945C335.662 547.847 335.451 547.796 335.236 547.796C335.021 547.796 334.809 547.847 334.618 547.945L326.063 552.882C325.697 553.081 325.666 553.416 326.063 553.599L334.252 558.323ZM303.431 539.03L294.876 543.967C294.525 544.181 294.48 544.501 294.876 544.684L303.05 549.393C303.241 549.49 303.453 549.541 303.668 549.541C303.883 549.541 304.094 549.49 304.285 549.393L312.841 544.455C313.207 544.242 313.237 543.922 312.841 543.739L304.651 539.03C304.463 538.931 304.254 538.879 304.041 538.879C303.829 538.879 303.62 538.931 303.431 539.03ZM319.276 553.492C319.468 553.59 319.679 553.641 319.894 553.641C320.109 553.641 320.321 553.59 320.512 553.492L329.067 548.554C329.433 548.341 329.464 548.021 329.067 547.838L321.03 543.084C320.839 542.986 320.627 542.935 320.413 542.935C320.198 542.935 319.986 542.986 319.795 543.084L311.24 548.021C310.889 548.234 310.843 548.554 311.24 548.737L319.276 553.492ZM353.742 561.234L362.297 556.296C362.663 556.098 362.694 555.778 362.374 555.58L354.184 550.871C353.994 550.769 353.782 550.716 353.567 550.716C353.351 550.716 353.139 550.769 352.949 550.871L344.394 555.793C344.043 556.007 343.997 556.327 344.394 556.509L352.568 561.234C352.751 561.322 352.952 561.367 353.155 561.367C353.358 561.367 353.559 561.322 353.742 561.234ZM340.017 568.488C340.208 568.585 340.42 568.636 340.634 568.636C340.849 568.636 341.061 568.585 341.252 568.488L349.792 563.55C350.158 563.352 350.189 563.032 349.792 562.834L341.618 558.125C341.427 558.027 341.215 557.976 341 557.976C340.786 557.976 340.574 558.027 340.383 558.125L331.904 562.986C331.538 563.2 331.507 563.52 331.904 563.702L340.017 568.488ZM315.921 531.822L307.381 536.759C307.015 536.973 306.985 537.293 307.381 537.475L315.555 542.184C315.749 542.282 315.963 542.333 316.181 542.333C316.398 542.333 316.612 542.282 316.806 542.184L325.346 537.247C325.712 537.033 325.743 536.713 325.422 536.531L317.248 531.806C317.04 531.709 316.813 531.66 316.583 531.662C316.353 531.665 316.127 531.719 315.921 531.822ZM378.447 495.78L369.907 500.718C369.541 500.931 369.511 501.251 369.907 501.434L378.081 506.158C378.275 506.256 378.49 506.307 378.707 506.307C378.924 506.307 379.138 506.256 379.332 506.158L387.872 501.221C388.238 501.008 388.269 500.688 387.872 500.505L379.698 495.796C379.498 495.685 379.273 495.626 379.044 495.623C378.815 495.621 378.589 495.675 378.386 495.78H378.447ZM328.472 524.613L319.932 529.551C319.566 529.764 319.536 530.084 319.856 530.267L328.03 534.976C328.223 535.078 328.437 535.131 328.655 535.131C328.873 535.131 329.088 535.078 329.281 534.976L337.821 530.039C338.187 529.825 338.217 529.505 337.897 529.322L329.723 524.598C329.517 524.503 329.292 524.455 329.065 524.458C328.839 524.46 328.615 524.514 328.411 524.613H328.472ZM390.998 488.572L382.443 493.51C382.077 493.723 382.047 494.043 382.443 494.226L390.632 498.95C390.824 499.048 391.035 499.099 391.25 499.099C391.465 499.099 391.676 499.048 391.868 498.95L400.423 494.013C400.774 493.799 400.804 493.479 400.423 493.296L392.249 488.587C392.044 488.466 391.811 488.401 391.572 488.398C391.334 488.395 391.099 488.455 390.892 488.572H390.998ZM366.003 502.989L357.463 507.926C357.097 508.14 357.067 508.46 357.463 508.642L365.637 513.367C365.831 513.464 366.045 513.515 366.263 513.515C366.48 513.515 366.694 513.464 366.888 513.367L375.428 508.429C375.794 508.216 375.824 507.896 375.428 507.713L367.254 503.004C367.048 502.885 366.815 502.822 366.577 502.819C366.339 502.816 366.105 502.875 365.897 502.989H366.003ZM353.513 510.197L344.958 515.134C344.607 515.348 344.561 515.668 344.958 515.851L353.132 520.575C353.325 520.668 353.536 520.716 353.75 520.716C353.964 520.716 354.175 520.668 354.367 520.575L362.923 515.637C363.289 515.424 363.319 515.104 362.923 514.921L354.733 510.197C354.529 510.089 354.301 510.032 354.07 510.032C353.839 510.032 353.611 510.089 353.407 510.197H353.513ZM340.856 517.405L332.3 522.343C331.934 522.556 331.904 522.876 332.224 523.059L340.413 527.783C340.606 527.876 340.817 527.925 341.031 527.925C341.245 527.925 341.456 527.876 341.649 527.783L350.204 522.846C350.555 522.632 350.601 522.312 350.204 522.129L342.03 517.42C341.848 517.33 341.648 517.282 341.444 517.279C341.241 517.277 341.04 517.32 340.856 517.405ZM397.892 522.251L406.447 517.314C406.798 517.1 406.843 516.78 406.447 516.597L398.273 511.873C398.082 511.776 397.87 511.725 397.655 511.725C397.44 511.725 397.229 511.776 397.038 511.873L388.482 516.811C388.116 517.024 388.086 517.344 388.406 517.527L396.595 522.236C396.8 522.357 397.034 522.423 397.272 522.425C397.51 522.428 397.745 522.368 397.953 522.251H397.892ZM514.449 417.252L505.894 422.189C505.528 422.403 505.497 422.723 505.818 422.906L514.007 427.615C514.198 427.712 514.41 427.763 514.625 427.763C514.839 427.763 515.051 427.712 515.242 427.615L523.798 422.677C524.164 422.464 524.194 422.144 523.874 421.961L515.685 417.236C515.499 417.155 515.298 417.114 515.096 417.117C514.893 417.12 514.694 417.166 514.51 417.252H514.449ZM499.458 425.984L490.918 430.906C490.552 431.12 490.522 431.44 490.918 431.622L499.092 436.347C499.284 436.444 499.495 436.495 499.71 436.495C499.925 436.495 500.136 436.444 500.328 436.347L508.883 431.424C509.249 431.211 509.279 430.891 508.959 430.708L500.785 425.984C500.582 425.873 500.353 425.815 500.122 425.815C499.89 425.815 499.662 425.873 499.458 425.984ZM527.077 410.044L518.536 414.981C518.17 415.194 518.14 415.514 518.536 415.697L526.711 420.406C526.902 420.504 527.113 420.555 527.328 420.555C527.543 420.555 527.755 420.504 527.946 420.406L536.501 415.469C536.867 415.255 536.898 414.935 536.577 414.752L528.403 410.028C528.189 409.906 527.946 409.843 527.7 409.846C527.453 409.848 527.212 409.917 527 410.044H527.077ZM458.023 474.156L466.563 469.218C466.929 469.02 466.96 468.685 466.64 468.502L458.466 463.793C458.274 463.695 458.063 463.644 457.848 463.644C457.633 463.644 457.422 463.695 457.23 463.793L448.675 468.73C448.309 468.944 448.278 469.264 448.599 469.447L456.773 474.171C456.958 474.254 457.159 474.296 457.362 474.294C457.565 474.291 457.764 474.244 457.947 474.156H458.023ZM540.817 402.79C540.62 402.701 540.407 402.656 540.192 402.656C539.976 402.656 539.763 402.701 539.566 402.79L531.026 407.727C530.66 407.94 530.63 408.26 531.026 408.443L539.2 413.168C539.397 413.256 539.61 413.302 539.826 413.302C540.041 413.302 540.254 413.256 540.451 413.168L548.991 408.23C549.357 408.017 549.388 407.697 549.067 407.514L540.817 402.79ZM410.519 515.043L419.074 510.105C419.44 509.892 419.471 509.572 419.074 509.389L410.885 504.665C410.694 504.567 410.482 504.516 410.267 504.516C410.052 504.516 409.841 504.567 409.65 504.665L401.094 509.648C400.743 509.862 400.713 510.182 401.094 510.365L409.268 515.074C409.454 515.157 409.656 515.197 409.859 515.192C410.062 515.186 410.262 515.136 410.443 515.043H410.519ZM563.738 426.654L572.278 421.732C572.644 421.519 572.675 421.199 572.355 421.016L564.18 416.292C563.987 416.194 563.772 416.143 563.555 416.143C563.338 416.143 563.124 416.194 562.93 416.292L554.359 421.26C553.993 421.473 553.963 421.793 554.283 421.991L562.457 426.7C562.65 426.781 562.858 426.818 563.066 426.807C563.275 426.797 563.479 426.739 563.662 426.639L563.738 426.654ZM539.566 427.127L548.107 422.189C548.473 421.991 548.503 421.671 548.107 421.473L539.933 416.688C539.739 416.59 539.524 416.539 539.307 416.539C539.09 416.539 538.876 416.59 538.682 416.688L530.142 421.61C529.776 421.824 529.745 422.144 530.066 422.326L538.24 427.051C538.429 427.158 538.64 427.219 538.858 427.23C539.075 427.241 539.292 427.2 539.49 427.112L539.566 427.127ZM552.499 409.556C552.305 409.458 552.091 409.407 551.873 409.407C551.656 409.407 551.442 409.458 551.248 409.556L542.708 414.478C542.342 414.691 542.312 415.012 542.632 415.194L550.806 419.919C551 420.016 551.214 420.067 551.431 420.067C551.648 420.067 551.863 420.016 552.056 419.919L560.597 414.981C560.963 414.783 560.993 414.463 560.597 414.265L552.499 409.556ZM555.122 408.032L574.947 419.492C575.138 419.59 575.35 419.641 575.565 419.641C575.779 419.641 575.991 419.59 576.182 419.492L584.738 414.57C585.089 414.356 585.134 414.036 584.738 413.853L564.912 402.393C564.721 402.296 564.51 402.245 564.295 402.245C564.08 402.245 563.868 402.296 563.677 402.393L555.122 407.316C554.756 407.544 554.725 407.834 555.046 408.017L555.122 408.032ZM526.192 424.003L517.637 428.879C517.286 429.093 517.24 429.413 517.637 429.596L525.811 434.32C526.002 434.418 526.214 434.468 526.428 434.468C526.643 434.468 526.855 434.418 527.046 434.32L535.601 429.382C535.967 429.184 535.998 428.864 535.601 428.666L527.412 423.957C527.219 423.869 527.008 423.827 526.797 423.835C526.585 423.843 526.378 423.9 526.192 424.003ZM432.159 478.24L423.619 483.177C423.253 483.391 423.222 483.711 423.542 483.894L431.717 488.618C431.908 488.716 432.12 488.766 432.334 488.766C432.549 488.766 432.761 488.716 432.952 488.618L441.507 483.68C441.873 483.467 441.904 483.147 441.584 482.964L433.409 478.255C433.217 478.155 433.003 478.101 432.786 478.099C432.569 478.096 432.354 478.144 432.159 478.24ZM549.921 433.893C550.115 433.991 550.329 434.042 550.547 434.042C550.764 434.042 550.978 433.991 551.172 433.893L559.712 428.971C560.078 428.757 560.109 428.437 559.788 428.255L551.614 423.53C551.42 423.433 551.206 423.382 550.989 423.382C550.772 423.382 550.558 423.433 550.364 423.53L541.824 428.453C541.458 428.666 541.427 428.986 541.824 429.169L549.921 433.893ZM444.695 471.032L436.154 475.969C435.788 476.183 435.758 476.503 436.078 476.685L444.252 481.41C444.446 481.507 444.66 481.558 444.878 481.558C445.095 481.558 445.309 481.507 445.503 481.41L454.043 476.472C454.409 476.274 454.44 475.939 454.119 475.756L445.945 471.047C445.747 470.939 445.525 470.881 445.299 470.879C445.073 470.876 444.85 470.929 444.649 471.032H444.695ZM346.788 551.115C346.979 551.212 347.191 551.263 347.406 551.263C347.62 551.263 347.832 551.212 348.023 551.115L356.579 546.177C356.929 545.964 356.975 545.644 356.579 545.461L348.404 540.737C348.213 540.639 348.002 540.588 347.787 540.588C347.572 540.588 347.36 540.639 347.169 540.737L338.614 545.674C338.263 545.872 338.217 546.208 338.614 546.39L346.788 551.115ZM332.254 535.875L323.714 540.813C323.348 541.026 323.318 541.346 323.714 541.529L331.705 546.223C331.898 546.316 332.109 546.364 332.323 546.364C332.537 546.364 332.748 546.316 332.941 546.223L341.496 541.285C341.862 541.072 341.893 540.752 341.496 540.569L333.322 535.845C332.956 535.724 332.559 535.746 332.209 535.906L332.254 535.875ZM360.513 543.846L369.069 538.908C369.435 538.695 369.465 538.375 369.145 538.192L360.955 533.467C360.764 533.37 360.553 533.319 360.338 533.319C360.123 533.319 359.911 533.37 359.72 533.467L351.18 538.405C350.814 538.603 350.784 538.938 351.104 539.121L359.278 543.83C359.46 543.928 359.661 543.982 359.867 543.99C360.073 543.998 360.279 543.959 360.467 543.876L360.513 543.846ZM373.018 536.637L381.559 531.7C381.925 531.486 381.955 531.166 381.635 530.983L373.461 526.259C373.267 526.161 373.053 526.11 372.835 526.11C372.618 526.11 372.404 526.161 372.21 526.259L363.67 531.197C363.304 531.41 363.273 531.73 363.594 531.913L371.768 536.622C371.952 536.72 372.156 536.775 372.365 536.782C372.574 536.79 372.781 536.751 372.973 536.668L373.018 536.637ZM385.508 529.429L394.048 524.491C394.415 524.278 394.445 523.958 394.125 523.775L385.951 519.051C385.759 518.953 385.548 518.902 385.333 518.902C385.118 518.902 384.907 518.953 384.715 519.051L376.16 523.989C375.794 524.187 375.763 524.522 376.084 524.705L384.258 529.414C384.442 529.511 384.646 529.566 384.855 529.574C385.064 529.582 385.271 529.543 385.463 529.46L385.508 529.429ZM344.744 528.667L336.204 533.605C335.838 533.818 335.808 534.138 336.204 534.321L344.378 539.045C344.572 539.143 344.786 539.194 345.004 539.194C345.221 539.194 345.435 539.143 345.629 539.045L354.169 534.108C354.535 533.894 354.566 533.574 354.169 533.391L345.995 528.682C345.794 528.579 345.571 528.527 345.345 528.529C345.119 528.532 344.897 528.59 344.699 528.698L344.744 528.667ZM357.25 521.459L348.648 526.412C348.282 526.625 348.252 526.945 348.572 527.128L356.762 531.852C356.953 531.95 357.165 532.001 357.379 532.001C357.594 532.001 357.806 531.95 357.997 531.852L366.552 526.915C366.903 526.701 366.934 526.381 366.552 526.198L358.378 521.489C358.195 521.401 357.994 521.356 357.791 521.356C357.588 521.356 357.387 521.401 357.204 521.489L357.25 521.459ZM407.225 492.626L398.669 497.563C398.303 497.777 398.273 498.097 398.669 498.28L406.843 503.004C407.037 503.102 407.252 503.153 407.469 503.153C407.686 503.153 407.9 503.102 408.094 503.004L416.634 498.066C417 497.853 417.031 497.533 416.634 497.35L408.46 492.641C408.262 492.538 408.041 492.486 407.818 492.488C407.594 492.491 407.375 492.549 407.179 492.656L407.225 492.626ZM394.72 499.834L386.179 504.772C385.813 504.985 385.783 505.305 386.103 505.488L394.277 510.212C394.471 510.31 394.685 510.361 394.903 510.361C395.12 510.361 395.334 510.31 395.528 510.212L404.068 505.275C404.434 505.061 404.464 504.741 404.144 504.558L395.97 499.849C395.769 499.746 395.546 499.694 395.32 499.696C395.094 499.699 394.872 499.757 394.674 499.865L394.72 499.834ZM419.715 485.418L411.159 490.355C410.793 490.569 410.763 490.889 411.159 491.071L419.349 495.796C419.54 495.893 419.752 495.944 419.966 495.944C420.181 495.944 420.393 495.893 420.584 495.796L429.139 490.858C429.505 490.645 429.536 490.325 429.139 490.142L420.965 485.433C420.765 485.327 420.542 485.273 420.315 485.276C420.089 485.278 419.867 485.338 419.669 485.448L419.715 485.418ZM369.694 514.22L361.138 519.158C360.788 519.371 360.742 519.691 361.138 519.874L369.313 524.598C369.504 524.696 369.715 524.747 369.93 524.747C370.145 524.747 370.357 524.696 370.548 524.598L379.103 519.661C379.469 519.447 379.5 519.127 379.179 518.944L370.929 514.22C370.738 514.122 370.526 514.072 370.311 514.072C370.097 514.072 369.885 514.122 369.694 514.22ZM382.184 507.012L373.644 511.949C373.278 512.163 373.247 512.483 373.567 512.666L381.742 517.39C381.933 517.488 382.144 517.538 382.359 517.538C382.574 517.538 382.786 517.488 382.977 517.39L391.532 512.452C391.898 512.239 391.929 511.919 391.608 511.736L383.434 507.027C383.237 506.936 383.021 506.893 382.804 506.901C382.586 506.909 382.374 506.968 382.184 507.073V507.012ZM366.232 553.964L374.787 549.027C375.153 548.829 375.184 548.509 374.864 548.311L366.69 543.602C366.496 543.504 366.281 543.453 366.064 543.453C365.847 543.453 365.633 543.504 365.439 543.602L356.899 548.539C356.533 548.753 356.502 549.073 356.823 549.255L364.997 553.98C365.184 554.085 365.394 554.143 365.609 554.151C365.824 554.159 366.037 554.116 366.232 554.025V553.964ZM300.351 550.917L292.177 546.192C291.986 546.095 291.774 546.044 291.559 546.044C291.344 546.044 291.133 546.095 290.941 546.192L282.386 551.13C282.02 551.343 281.99 551.663 282.386 551.846L290.575 556.555C290.767 556.653 290.978 556.704 291.193 556.704C291.408 556.704 291.62 556.653 291.811 556.555L300.366 551.618C300.641 551.42 300.686 551.099 300.351 550.917ZM316.638 555.001L308.464 550.292C308.273 550.194 308.061 550.143 307.846 550.143C307.632 550.143 307.42 550.194 307.229 550.292L294.068 557.912C293.702 558.125 293.671 558.445 294.068 558.628L302.242 563.352C302.433 563.45 302.645 563.501 302.86 563.501C303.074 563.501 303.286 563.45 303.477 563.352L316.638 555.732C316.928 555.504 316.958 555.184 316.638 555.001ZM288.151 541.651L279.977 536.927C279.783 536.829 279.568 536.778 279.351 536.778C279.134 536.778 278.92 536.829 278.726 536.927L268.203 543.023C267.853 543.236 267.807 543.556 268.203 543.739L276.377 548.463C276.569 548.561 276.78 548.612 276.995 548.612C277.21 548.612 277.422 548.561 277.613 548.463L288.135 542.367C288.44 542.108 288.471 541.788 288.151 541.651ZM296.218 536.988C296.409 537.085 296.621 537.136 296.836 537.136C297.05 537.136 297.262 537.085 297.453 536.988L306.009 532.065C306.375 531.852 306.405 531.532 306.009 531.349L297.819 526.625C297.628 526.527 297.416 526.476 297.202 526.476C296.987 526.476 296.775 526.527 296.584 526.625L288.044 531.563C287.678 531.761 287.647 532.081 288.044 532.279L296.218 536.988ZM331.614 559.847L323.44 555.123C323.246 555.025 323.032 554.974 322.815 554.974C322.597 554.974 322.383 555.025 322.189 555.123L305.78 564.647C305.429 564.861 305.383 565.181 305.78 565.364L313.954 570.088C314.145 570.185 314.357 570.236 314.572 570.236C314.786 570.236 314.998 570.185 315.189 570.088L331.629 560.609C331.904 560.35 331.934 560.03 331.614 559.847ZM337.379 569.996L329.204 565.287C329.01 565.19 328.796 565.139 328.579 565.139C328.362 565.139 328.148 565.19 327.954 565.287L317.446 571.383C317.08 571.581 317.05 571.917 317.37 572.099L325.544 576.808C325.736 576.906 325.947 576.957 326.162 576.957C326.377 576.957 326.588 576.906 326.78 576.808L337.302 570.713C337.668 570.514 337.699 570.179 337.379 569.996ZM389.107 483.36C389.3 483.453 389.511 483.502 389.725 483.502C389.939 483.502 390.15 483.453 390.343 483.36L398.898 478.423C399.264 478.209 399.295 477.889 398.974 477.706L390.8 472.998C390.606 472.9 390.392 472.849 390.175 472.849C389.958 472.849 389.744 472.9 389.55 472.998L381.01 477.935C380.644 478.148 380.613 478.468 380.933 478.651L389.107 483.36ZM364.127 497.762C364.319 497.859 364.53 497.91 364.745 497.91C364.96 497.91 365.172 497.859 365.363 497.762L373.918 492.824C374.269 492.611 374.299 492.291 373.918 492.108L365.744 487.384C365.551 487.29 365.34 487.242 365.126 487.242C364.912 487.242 364.701 487.29 364.509 487.384L355.953 492.321C355.587 492.534 355.557 492.854 355.877 493.037L364.127 497.762ZM308.708 529.764C308.902 529.862 309.116 529.913 309.333 529.913C309.55 529.913 309.765 529.862 309.959 529.764L318.499 524.842C318.865 524.629 318.895 524.309 318.499 524.126L310.325 519.401C310.131 519.304 309.916 519.253 309.699 519.253C309.482 519.253 309.268 519.304 309.074 519.401L300.534 524.339C300.168 524.537 300.137 524.857 300.534 525.055L308.708 529.764ZM376.617 490.584C376.807 490.685 377.02 490.738 377.235 490.738C377.451 490.738 377.663 490.685 377.853 490.584L386.408 485.646C386.774 485.433 386.805 485.113 386.408 484.93L378.219 480.206C378.027 480.108 377.816 480.057 377.601 480.057C377.386 480.057 377.175 480.108 376.983 480.206L368.428 485.143C368.077 485.357 368.032 485.677 368.428 485.86L376.617 490.584ZM351.622 505.015C351.819 505.104 352.032 505.149 352.248 505.149C352.463 505.149 352.676 505.104 352.873 505.015L361.413 500.078C361.779 499.865 361.809 499.545 361.489 499.362L353.315 494.637C353.121 494.54 352.907 494.489 352.69 494.489C352.473 494.489 352.258 494.54 352.065 494.637L343.524 499.575C343.158 499.788 343.128 500.108 343.448 500.291L351.622 505.015ZM343.509 570.545C343.318 570.447 343.106 570.396 342.891 570.396C342.677 570.396 342.465 570.447 342.274 570.545L329.128 578.165C328.762 578.378 328.732 578.698 329.052 578.881L337.226 583.605C337.417 583.703 337.629 583.754 337.844 583.754C338.058 583.754 338.27 583.703 338.461 583.605L351.622 575.985C351.988 575.772 352.019 575.452 351.699 575.269L343.509 570.545ZM333.703 515.363C333.894 515.461 334.106 515.512 334.321 515.512C334.536 515.512 334.747 515.461 334.938 515.363L343.494 510.441C343.845 510.227 343.89 509.907 343.494 509.724L335.32 505C335.129 504.903 334.917 504.852 334.702 504.852C334.487 504.852 334.276 504.903 334.084 505L325.605 509.892C325.239 510.09 325.209 510.41 325.529 510.608L333.703 515.363ZM321.198 522.571C321.392 522.669 321.606 522.72 321.823 522.72C322.04 522.72 322.255 522.669 322.449 522.571L330.989 517.649C331.355 517.436 331.385 517.116 331.065 516.933L322.891 512.208C322.697 512.111 322.483 512.06 322.266 512.06C322.048 512.06 321.834 512.111 321.64 512.208L313.1 517.146C312.734 517.344 312.704 517.664 313.024 517.862L321.198 522.571ZM574.978 437.017C574.784 436.919 574.57 436.869 574.352 436.869C574.135 436.869 573.921 436.919 573.727 437.017L552.697 449.209C552.331 449.422 552.3 449.742 552.621 449.925L560.795 454.649C560.989 454.747 561.203 454.798 561.42 454.798C561.637 454.798 561.851 454.747 562.045 454.649L583.075 442.458C583.441 442.26 583.472 441.924 583.152 441.741L574.978 437.017ZM547.359 452.942C547.165 452.845 546.951 452.794 546.734 452.794C546.517 452.794 546.303 452.845 546.109 452.942L537.584 457.834C537.218 458.032 537.187 458.352 537.508 458.551L545.682 463.26C545.876 463.357 546.09 463.408 546.307 463.408C546.524 463.408 546.738 463.357 546.932 463.26L555.473 458.337C555.839 458.124 555.869 457.804 555.473 457.621L547.359 452.942ZM378.737 546.817L387.277 541.88C387.643 541.682 387.674 541.361 387.354 541.163L379.179 536.454C378.986 536.357 378.771 536.306 378.554 536.306C378.337 536.306 378.123 536.357 377.929 536.454L369.389 541.392C369.023 541.605 368.992 541.925 369.313 542.108L377.487 546.832C377.682 546.928 377.897 546.976 378.114 546.974C378.331 546.971 378.545 546.917 378.737 546.817ZM522.334 467.313C522.142 467.216 521.931 467.165 521.716 467.165C521.501 467.165 521.29 467.216 521.098 467.313L512.543 472.251C512.192 472.449 512.146 472.769 512.543 472.967L520.717 477.676C520.908 477.774 521.12 477.825 521.335 477.825C521.55 477.825 521.761 477.774 521.952 477.676L530.508 472.754C530.874 472.54 530.904 472.22 530.584 472.037L522.334 467.313ZM587.437 429.763C587.246 429.666 587.034 429.615 586.819 429.615C586.605 429.615 586.393 429.666 586.202 429.763L577.646 434.701C577.28 434.914 577.25 435.234 577.57 435.417L585.76 440.141C585.951 440.239 586.162 440.29 586.377 440.29C586.592 440.29 586.804 440.239 586.995 440.141L595.535 435.204C595.901 435.006 595.931 434.686 595.611 434.487L587.437 429.763ZM608.116 427.264L588.291 415.804C588.1 415.706 587.888 415.655 587.673 415.655C587.459 415.655 587.247 415.706 587.056 415.804L578.5 420.742C578.134 420.955 578.104 421.275 578.424 421.458L598.249 432.918C598.441 433.015 598.652 433.066 598.867 433.066C599.082 433.066 599.294 433.015 599.485 432.918L608.04 427.98C608.437 427.782 608.467 427.462 608.147 427.264H608.116ZM475.653 494.317C475.461 494.22 475.25 494.169 475.035 494.169C474.82 494.169 474.609 494.22 474.417 494.317L463.895 500.413C463.529 500.611 463.498 500.947 463.895 501.129L472.069 505.838C472.263 505.936 472.477 505.987 472.694 505.987C472.911 505.987 473.125 505.936 473.319 505.838L483.827 499.743C484.193 499.545 484.223 499.209 483.903 499.026L475.653 494.317ZM507.251 476.122C507.057 476.024 506.843 475.973 506.626 475.973C506.409 475.973 506.195 476.024 506.001 476.122L492.855 483.741C492.489 483.955 492.458 484.275 492.855 484.458L501.029 489.182C501.223 489.28 501.437 489.33 501.654 489.33C501.872 489.33 502.086 489.28 502.28 489.182L515.425 481.562C515.791 481.364 515.822 481.044 515.502 480.846L507.251 476.122ZM446.753 511.02C446.559 510.922 446.345 510.871 446.128 510.871C445.911 510.871 445.697 510.922 445.503 511.02L375.153 551.602C374.787 551.816 374.757 552.136 375.077 552.319L383.251 557.043C383.445 557.141 383.659 557.192 383.877 557.192C384.094 557.192 384.308 557.141 384.502 557.043L454.851 516.46C455.217 516.247 455.248 515.927 454.928 515.744L446.753 511.02ZM372.454 553.843C372.26 553.745 372.046 553.694 371.829 553.694C371.612 553.694 371.397 553.745 371.204 553.843L360.681 559.938C360.315 560.152 360.284 560.472 360.605 560.655L368.794 565.379C368.985 565.476 369.197 565.527 369.412 565.527C369.626 565.527 369.838 565.476 370.029 565.379L380.552 559.283C380.918 559.07 380.949 558.75 380.628 558.567L372.454 553.843ZM461.211 502.623C461.019 502.525 460.808 502.474 460.593 502.474C460.378 502.474 460.167 502.525 459.975 502.623L449.453 508.719C449.087 508.932 449.056 509.252 449.376 509.435L457.566 514.159C457.757 514.257 457.969 514.308 458.183 514.308C458.398 514.308 458.61 514.257 458.801 514.159L469.324 508.063C469.69 507.85 469.72 507.53 469.324 507.347L461.211 502.623ZM357.982 562.194C357.79 562.096 357.579 562.045 357.364 562.045C357.149 562.045 356.938 562.096 356.746 562.194L346.224 568.29C345.858 568.503 345.827 568.823 346.147 569.006L354.322 573.715C354.513 573.812 354.724 573.863 354.939 573.863C355.154 573.863 355.366 573.812 355.557 573.715L366.079 567.619C366.446 567.421 366.476 567.101 366.156 566.903L357.982 562.194ZM490.156 485.997C489.962 485.899 489.748 485.848 489.53 485.848C489.313 485.848 489.099 485.899 488.905 485.997L478.382 492.092C478.032 492.306 477.986 492.626 478.382 492.809L486.557 497.533C486.748 497.631 486.959 497.682 487.174 497.682C487.389 497.682 487.601 497.631 487.792 497.533L498.315 491.437C498.681 491.224 498.711 490.904 498.315 490.721L490.156 485.997ZM534.869 460.196C534.676 460.099 534.461 460.048 534.244 460.048C534.027 460.048 533.813 460.099 533.619 460.196L525.079 465.134C524.713 465.332 524.682 465.652 525.002 465.85L533.177 470.559C533.371 470.657 533.585 470.708 533.802 470.708C534.019 470.708 534.233 470.657 534.427 470.559L542.967 465.637C543.333 465.423 543.364 465.103 543.044 464.921L534.869 460.196ZM562.854 440.69L571.394 435.752C571.76 435.539 571.79 435.219 571.47 435.036L563.296 430.312C563.102 430.214 562.888 430.163 562.671 430.163C562.453 430.163 562.239 430.214 562.045 430.312L553.505 435.249C553.139 435.448 553.109 435.783 553.429 435.966L561.603 440.675C561.803 440.761 562.02 440.799 562.237 440.786C562.455 440.772 562.666 440.708 562.854 440.599V440.69ZM511.872 443.143L520.412 438.206C520.778 437.993 520.809 437.673 520.488 437.49L512.314 432.765C512.12 432.668 511.906 432.617 511.689 432.617C511.472 432.617 511.258 432.668 511.064 432.765L502.524 437.703C502.158 437.916 502.127 438.236 502.524 438.419L510.698 443.128C510.887 443.202 511.09 443.234 511.293 443.221C511.496 443.208 511.694 443.15 511.872 443.052V443.143ZM478.687 489.243L503.667 474.826C504.033 474.613 504.064 474.293 503.744 474.11L495.569 469.386C495.376 469.288 495.161 469.237 494.944 469.237C494.727 469.237 494.513 469.288 494.319 469.386L469.339 483.741C468.973 483.955 468.943 484.275 469.263 484.458L477.437 489.182C477.633 489.275 477.849 489.321 478.066 489.315C478.283 489.31 478.496 489.254 478.687 489.151V489.243ZM549.113 447.929C549.304 448.026 549.516 448.077 549.731 448.077C549.946 448.077 550.157 448.026 550.348 447.929L558.904 442.991C559.27 442.778 559.3 442.458 558.904 442.275L550.714 437.551C550.523 437.453 550.312 437.402 550.097 437.402C549.882 437.402 549.67 437.453 549.479 437.551L540.939 442.488C540.573 442.686 540.542 443.022 540.863 443.204L549.113 447.929ZM538.667 441.071L547.222 436.149C547.588 435.935 547.619 435.615 547.298 435.432L539.109 430.708C538.918 430.61 538.706 430.56 538.491 430.56C538.277 430.56 538.065 430.61 537.874 430.708L529.334 435.63C528.968 435.844 528.922 436.164 529.334 436.347L537.508 441.071C537.689 441.156 537.887 441.201 538.087 441.201C538.288 441.201 538.486 441.156 538.667 441.071ZM466.182 496.375L474.738 491.437C475.104 491.239 475.134 490.919 474.814 490.721L466.624 486.012C466.433 485.914 466.222 485.863 466.007 485.863C465.792 485.863 465.58 485.914 465.389 486.012L456.834 490.934C456.483 491.148 456.437 491.468 456.834 491.651L465.008 496.375C465.192 496.46 465.394 496.503 465.597 496.501C465.8 496.498 466 496.45 466.182 496.36V496.375ZM521.495 463.793C521.686 463.891 521.898 463.941 522.113 463.941C522.327 463.941 522.539 463.891 522.73 463.793L531.286 458.871C531.652 458.657 531.682 458.337 531.362 458.154L523.188 453.43C522.994 453.332 522.78 453.281 522.562 453.281C522.345 453.281 522.131 453.332 521.937 453.43L513.397 458.352C513.031 458.566 513.001 458.886 513.321 459.069L521.495 463.793ZM403.717 532.37L412.273 527.433C412.623 527.235 412.669 526.915 412.273 526.716L404.083 522.007C403.891 521.913 403.68 521.864 403.466 521.864C403.251 521.864 403.04 521.913 402.848 522.007L394.292 526.945C393.926 527.158 393.896 527.478 394.216 527.661L402.406 532.385C402.605 532.499 402.83 532.559 403.059 532.562C403.289 532.565 403.515 532.509 403.717 532.401V532.37ZM416.207 525.162L424.732 520.316C425.098 520.118 425.129 519.798 424.732 519.6L416.543 514.891C416.351 514.793 416.14 514.742 415.925 514.742C415.71 514.742 415.499 514.793 415.307 514.891L406.767 519.813C406.401 520.026 406.371 520.346 406.767 520.529L414.941 525.253C415.141 525.347 415.361 525.39 415.582 525.38C415.802 525.369 416.017 525.305 416.207 525.192V525.162ZM391.181 539.609L399.722 534.671C400.088 534.473 400.118 534.153 399.798 533.955L391.624 529.246C391.432 529.148 391.221 529.098 391.006 529.098C390.791 529.098 390.58 529.148 390.388 529.246L381.833 534.168C381.467 534.382 381.437 534.702 381.757 534.885L389.931 539.609C390.125 539.707 390.339 539.758 390.556 539.758C390.773 539.758 390.988 539.707 391.181 539.609ZM441.157 510.776L449.697 505.838C450.063 505.64 450.093 505.32 449.697 505.122L441.523 500.413C441.329 500.315 441.114 500.264 440.897 500.264C440.68 500.264 440.466 500.315 440.272 500.413L431.732 505.336C431.366 505.549 431.335 505.869 431.732 506.052L439.906 510.776C440.106 510.881 440.328 510.937 440.554 510.937C440.78 510.937 441.003 510.881 441.202 510.776H441.157ZM428.667 517.984L437.207 513.047C437.573 512.849 437.603 512.529 437.207 512.33L429.033 507.621C428.839 507.524 428.625 507.473 428.407 507.473C428.19 507.473 427.976 507.524 427.782 507.621L419.242 512.544C418.876 512.757 418.845 513.077 419.242 513.26L427.416 517.984C427.616 518.09 427.838 518.145 428.064 518.145C428.29 518.145 428.513 518.09 428.712 517.984H428.667ZM453.708 503.553L462.263 498.615C462.614 498.417 462.659 498.097 462.263 497.899L454.089 493.19C453.898 493.092 453.686 493.041 453.471 493.041C453.256 493.041 453.045 493.092 452.853 493.19L444.298 498.112C443.932 498.325 443.902 498.645 444.222 498.828L452.411 503.553C452.61 503.661 452.833 503.717 453.059 503.717C453.286 503.717 453.509 503.661 453.708 503.553ZM521.891 403.277C522.083 403.375 522.294 403.426 522.509 403.426C522.724 403.426 522.935 403.375 523.127 403.277L531.682 398.355C532.033 398.142 532.079 397.821 531.682 397.639L529.517 396.374C529.323 396.276 529.108 396.225 528.891 396.225C528.674 396.225 528.46 396.276 528.266 396.374L519.726 401.311C519.36 401.509 519.329 401.829 519.65 402.028L521.891 403.277ZM459.808 442.595C459.999 442.693 460.211 442.743 460.425 442.743C460.64 442.743 460.852 442.693 461.043 442.595L469.598 437.673C469.964 437.459 469.995 437.139 469.598 436.956L461.409 432.232C461.218 432.134 461.006 432.083 460.791 432.083C460.577 432.083 460.365 432.134 460.174 432.232L451.618 437.17C451.267 437.368 451.222 437.688 451.618 437.886L459.808 442.595ZM484.788 428.178C484.981 428.276 485.196 428.327 485.413 428.327C485.63 428.327 485.844 428.276 486.038 428.178L494.578 423.256C494.944 423.043 494.975 422.723 494.654 422.54L486.48 417.816C486.286 417.718 486.072 417.667 485.855 417.667C485.638 417.667 485.424 417.718 485.23 417.816L476.69 422.753C476.324 422.951 476.293 423.271 476.613 423.469L484.788 428.178ZM444.557 451.388C444.751 451.486 444.965 451.537 445.183 451.537C445.4 451.537 445.614 451.486 445.808 451.388L454.348 446.45C454.714 446.252 454.745 445.932 454.424 445.734L446.25 441.025C446.059 440.928 445.847 440.877 445.632 440.877C445.418 440.877 445.206 440.928 445.015 441.025L436.459 445.948C436.093 446.161 436.063 446.481 436.459 446.664L444.557 451.388ZM472.313 435.371C472.507 435.469 472.721 435.52 472.938 435.52C473.155 435.52 473.369 435.469 473.563 435.371L482.103 430.449C482.47 430.236 482.5 429.916 482.103 429.733L473.929 425.009C473.735 424.911 473.521 424.86 473.304 424.86C473.087 424.86 472.873 424.911 472.679 425.009L464.139 429.946C463.773 430.144 463.742 430.464 464.062 430.662L472.313 435.371ZM419.577 465.85C419.769 465.948 419.98 465.999 420.195 465.999C420.41 465.999 420.621 465.948 420.813 465.85L429.307 460.882C429.673 460.684 429.704 460.364 429.383 460.166L421.194 455.457C421.003 455.359 420.791 455.308 420.576 455.308C420.362 455.308 420.15 455.359 419.959 455.457L411.403 460.379C411.053 460.593 411.022 460.913 411.403 461.096L419.577 465.85ZM432.067 458.642C432.261 458.74 432.475 458.791 432.693 458.791C432.91 458.791 433.124 458.74 433.318 458.642L441.858 453.704C442.224 453.506 442.255 453.186 441.934 452.988L433.76 448.279C433.566 448.181 433.352 448.13 433.135 448.13C432.918 448.13 432.704 448.181 432.51 448.279L423.97 453.201C423.603 453.415 423.573 453.735 423.893 453.918L432.067 458.642ZM496.927 417.755C497.121 417.852 497.335 417.903 497.552 417.903C497.769 417.903 497.983 417.852 498.177 417.755L506.717 412.832C507.083 412.619 507.114 412.299 506.717 412.116L504.537 410.851C504.345 410.754 504.134 410.703 503.919 410.703C503.704 410.703 503.493 410.754 503.301 410.851L494.746 415.789C494.38 415.987 494.349 416.307 494.67 416.505L496.927 417.755ZM534.412 396.13C534.603 396.228 534.815 396.278 535.03 396.278C535.244 396.278 535.456 396.228 535.647 396.13L544.203 391.208C544.569 390.994 544.599 390.674 544.279 390.491L542.098 389.226C541.907 389.129 541.695 389.078 541.48 389.078C541.266 389.078 541.054 389.129 540.863 389.226L532.307 394.164C531.941 394.362 531.911 394.697 532.231 394.88L534.412 396.13ZM551.538 406.02C551.732 406.118 551.946 406.169 552.163 406.169C552.38 406.169 552.595 406.118 552.788 406.02L561.329 401.083C561.695 400.869 561.725 400.549 561.405 400.366L553.231 395.642C553.038 395.549 552.827 395.501 552.613 395.501C552.399 395.501 552.188 395.549 551.995 395.642L543.44 400.58C543.074 400.793 543.044 401.113 543.44 401.296L551.538 406.02ZM575.344 433.451L583.884 428.514C584.25 428.3 584.28 427.98 583.96 427.797L575.786 423.073C575.595 422.976 575.383 422.925 575.168 422.925C574.953 422.925 574.742 422.976 574.551 423.073L565.995 428.011C565.629 428.224 565.599 428.544 565.919 428.727L574.093 433.436C574.286 433.536 574.499 433.59 574.717 433.592C574.934 433.595 575.149 433.547 575.344 433.451ZM509.371 410.592C509.565 410.69 509.779 410.741 509.996 410.741C510.213 410.741 510.428 410.69 510.622 410.592L519.162 405.67C519.528 405.456 519.558 405.136 519.238 404.954L517.057 403.689C516.866 403.591 516.654 403.54 516.439 403.54C516.225 403.54 516.013 403.591 515.822 403.689L507.266 408.626C506.916 408.824 506.885 409.144 507.266 409.342L509.371 410.592ZM407.042 473.074C407.233 473.171 407.445 473.222 407.659 473.222C407.874 473.222 408.086 473.171 408.277 473.074L416.832 468.136C417.198 467.938 417.229 467.618 416.832 467.42L408.658 462.711C408.467 462.613 408.255 462.562 408.041 462.562C407.826 462.562 407.614 462.613 407.423 462.711L398.868 467.648C398.502 467.862 398.471 468.182 398.791 468.365L407.042 473.074Z" fill="#455A64"/>
<path d="M442.818 544.059L444.679 545.126L494.044 573.608L581.84 522.952L583.67 521.916L532.444 492.352L442.818 544.059Z" fill="#263238"/>
<path d="M580.711 523.592L532.444 495.765L445.808 545.781L494.044 573.608L580.711 523.592Z" fill="#37474F"/>
<path d="M199.181 525.68C195.627 524.034 194.606 521.215 194.316 516.216L178.349 282.825C178.333 280.089 179.015 277.394 180.331 274.994C181.646 272.595 183.552 270.569 185.867 269.109L482.958 97.6812C487.456 95.0905 490.75 93.6885 494.899 96.5231C499.047 99.3576 499.138 100.927 499.474 105.911L515.441 339.317C515.453 342.053 514.77 344.747 513.455 347.146C512.14 349.545 510.236 351.571 507.922 353.033L210.817 524.446C206.333 527.036 203.786 527.798 199.181 525.68Z" fill="#37474F"/>
<path d="M499.458 105.911C499.123 100.927 495.203 98.9919 490.705 101.567L193.614 272.98C191.259 274.436 189.341 276.5 188.063 278.954L180.301 275.053C181.599 272.603 183.525 270.541 185.882 269.079L482.957 97.6813C487.456 95.0906 490.766 93.6581 494.898 96.5232C499.26 99.5406 499.138 100.927 499.458 105.911Z" fill="#455A64"/>
<path d="M210.222 524.796C206.135 527.204 203.542 527.509 199.18 525.68C195.856 524.278 194.605 521.215 194.316 516.217L178.349 282.81C178.26 280.097 178.936 277.415 180.301 275.068L188.048 278.939C186.696 281.29 186.025 283.97 186.111 286.681L202.078 520.103C202.383 524.735 206.379 527.052 210.222 524.796Z" fill="#263238"/>
<path d="M198.784 281.911L484.696 117.005C487.395 115.481 489.744 116.609 489.942 119.596L504.842 337.336C504.843 338.986 504.423 340.608 503.623 342.051C502.822 343.493 501.667 344.708 500.267 345.581L214.416 510.486C211.716 512.01 209.368 510.867 209.17 507.881L194.27 290.201C194.253 288.549 194.659 286.92 195.449 285.47C196.239 284.019 197.387 282.794 198.784 281.911Z" fill="black"/>
<path d="M198.784 281.911C197.385 282.781 196.23 283.993 195.43 285.433C194.629 286.873 194.209 288.493 194.209 290.14L208.864 504.254L491.498 341.192C492.9 340.321 494.057 339.107 494.858 337.664C495.658 336.221 496.077 334.597 496.073 332.947L481.432 118.834L198.784 281.911Z" fill="white"/>
<path d="M563.189 96.1118C563.169 95.9284 563.123 95.7488 563.052 95.5784C563.063 95.5599 563.068 95.5389 563.068 95.5175C563.068 95.4961 563.063 95.475 563.052 95.4565C563.016 95.2759 562.955 95.1013 562.869 94.9384C562.774 94.6683 562.635 94.416 562.457 94.1916C562.39 94.0886 562.313 93.9918 562.229 93.9021C562.165 93.8236 562.094 93.752 562.015 93.6887C561.889 93.5387 561.74 93.41 561.573 93.3077C561.398 93.192 561.208 93.0997 561.008 93.0334C560.307 92.7985 559.561 92.7285 558.829 92.829C558.096 92.9294 557.396 93.1976 556.784 93.6125L339.895 218.576C336.54 220.511 334.008 225.129 334.451 231.666L346.742 410.928C346.559 408.154 346.559 408.169 346.559 408.184L346.651 409.465C346.715 410.217 346.983 410.939 347.426 411.551C347.87 412.163 348.471 412.643 349.167 412.939L349.442 413.107L349.792 413.274C349.968 413.348 350.153 413.399 350.341 413.427C350.611 413.489 350.888 413.515 351.165 413.503C351.892 413.491 352.602 413.286 353.224 412.909L353.376 412.817L359.202 409.449L570.021 287.793C571.752 286.691 573.176 285.171 574.162 283.373C575.148 281.574 575.665 279.557 575.664 277.506L563.281 96.8433C563.267 96.5976 563.237 96.3532 563.189 96.1118Z" fill="#FAFAFA"/>
<path d="M559.56 94.481C559.822 94.4771 560.082 94.529 560.322 94.6334H560.49L560.581 94.7096C560.612 94.7025 560.643 94.7025 560.673 94.7096L560.825 94.8925L560.978 95.0753L561.085 95.243L561.314 95.7763C561.318 95.827 561.318 95.878 561.314 95.9287C561.314 96.1116 561.314 96.3097 561.314 96.5078L573.712 277.202C573.695 278.926 573.25 280.62 572.417 282.131C571.584 283.641 570.389 284.922 568.939 285.857L358.333 407.971L352.675 411.247L352.522 411.339L352.37 411.43C352.012 411.642 351.61 411.768 351.195 411.796H351.119H350.677H350.494L350.296 411.705L350.158 411.628H350.052C349.639 411.463 349.279 411.188 349.01 410.834C348.742 410.479 348.575 410.059 348.527 409.617L348.435 408.337L348.328 406.706L336.326 231.819C335.899 225.555 338.416 221.791 340.901 220.359L557.592 95.1363C558.183 94.7607 558.861 94.5454 559.56 94.5115M559.56 92.7742C558.558 92.8071 557.582 93.0956 556.723 93.6123L339.895 218.576C336.54 220.511 334.008 225.128 334.451 231.666L346.742 410.927C346.559 408.367 346.559 408.184 346.559 408.184L346.651 409.464C346.715 410.217 346.983 410.938 347.426 411.551C347.87 412.163 348.471 412.643 349.167 412.939L349.442 413.107L349.792 413.274C349.968 413.348 350.153 413.399 350.341 413.427C350.592 413.48 350.848 413.51 351.104 413.518H351.18C351.901 413.498 352.605 413.293 353.224 412.924L353.376 412.832L359.202 409.464L570.021 287.808C571.752 286.706 573.176 285.186 574.162 283.388C575.148 281.59 575.665 279.572 575.664 277.522L563.281 96.8431C563.267 96.5974 563.237 96.353 563.189 96.1116C563.169 95.9282 563.123 95.7486 563.052 95.5782C563.063 95.5597 563.068 95.5387 563.068 95.5173C563.068 95.4959 563.063 95.4748 563.052 95.4563C563.016 95.2757 562.955 95.1011 562.869 94.9382C562.774 94.6681 562.635 94.4158 562.457 94.1914C562.39 94.0885 562.313 93.9916 562.229 93.9019C562.165 93.8234 562.094 93.7519 562.015 93.6885C561.889 93.5385 561.74 93.4099 561.573 93.3076C561.398 93.1918 561.208 93.0995 561.008 93.0332C560.569 92.8525 560.096 92.7644 559.621 92.7742H559.56Z" fill="#BA68C8"/>
<path d="M560.947 93.0029C560.246 92.7679 559.5 92.698 558.767 92.7984C558.034 92.8989 557.335 93.167 556.723 93.582L339.894 218.576C338.164 219.678 336.74 221.198 335.754 222.996C334.767 224.794 334.251 226.812 334.252 228.862L335.03 240.231L326.657 236.01L325.895 224.778C325.883 222.731 326.392 220.715 327.374 218.918C328.355 217.122 329.777 215.604 331.507 214.507L548.35 89.5435C549.006 89.0731 549.775 88.7844 550.578 88.7068C551.382 88.6291 552.192 88.7654 552.925 89.1016C554.1 89.6959 559.544 92.3781 560.947 93.0029Z" fill="#BA68C8"/>
<path d="M563.266 96.7976C562.991 93.0944 560.078 91.6619 556.723 93.5973L339.895 218.576C338.162 219.673 336.736 221.193 335.752 222.993C334.767 224.792 334.257 226.812 334.268 228.862L335.046 240.246L564.059 108.242L563.266 96.7976Z" fill="#BA68C8"/>
<g opacity="0.2">
<path d="M556.723 93.6125L339.895 218.576C338.141 219.664 336.709 221.2 335.747 223.026L327.405 218.881C328.363 217.081 329.784 215.571 331.523 214.507L548.351 89.5436C549.014 89.0898 549.782 88.8113 550.582 88.734C551.382 88.6567 552.188 88.7832 552.926 89.1017C554.1 89.7265 559.545 92.3782 560.917 93.0182C560.219 92.7904 559.478 92.7255 558.751 92.8285C558.024 92.9316 557.331 93.1998 556.723 93.6125Z" fill="white"/>
</g>
<path opacity="0.15" d="M326.643 236.07L325.88 224.809C325.831 222.739 326.359 220.697 327.405 218.911L335.762 223.026C334.71 224.798 334.181 226.832 334.237 228.893L335.015 240.277L326.643 236.07Z" fill="black"/>
<path d="M536.73 111.138C535.962 111.673 535.343 112.394 534.929 113.233C534.516 114.073 534.322 115.003 534.367 115.938C534.489 117.767 535.754 118.59 537.188 117.767C537.955 117.227 538.574 116.503 538.987 115.662C539.4 114.82 539.594 113.888 539.552 112.951C539.414 111.122 538.164 110.376 536.73 111.138Z" fill="#FAFAFA"/>
<path d="M546.048 105.804C545.289 106.337 544.675 107.051 544.262 107.881C543.849 108.712 543.651 109.632 543.684 110.559C543.806 112.387 545.072 113.21 546.506 112.387C547.272 111.848 547.89 111.124 548.3 110.282C548.711 109.44 548.901 108.507 548.854 107.572C548.732 105.804 547.482 104.92 546.048 105.804Z" fill="#FAFAFA"/>
<path d="M555.366 100.364C554.596 100.9 553.974 101.623 553.561 102.466C553.147 103.308 552.955 104.242 553.002 105.179C553.124 107.008 554.39 107.831 555.823 106.993C556.59 106.457 557.207 105.735 557.618 104.896C558.029 104.056 558.219 103.126 558.172 102.192C558.05 100.348 556.799 99.5406 555.366 100.364Z" fill="#FAFAFA"/>
<path d="M349.167 413L348.816 412.832L341.908 409.403C341.007 408.976 340.215 408.351 339.589 407.576C338.963 406.8 338.521 405.893 338.294 404.923C338.231 404.642 338.19 404.357 338.172 404.07L326.643 236.055L335.03 240.276L346.636 409.434C346.691 410.122 346.922 410.785 347.306 411.358C347.691 411.932 348.216 412.397 348.832 412.71L349.045 412.848L349.167 413Z" fill="#BA68C8"/>
<path opacity="0.5" d="M349.167 413L348.816 412.832L341.908 409.403C341.007 408.976 340.215 408.351 339.589 407.576C338.963 406.8 338.521 405.893 338.294 404.923C338.231 404.642 338.19 404.357 338.172 404.07L326.643 236.055L335.03 240.276L346.636 409.434C346.691 410.122 346.922 410.785 347.306 411.358C347.691 411.932 348.216 412.397 348.832 412.71L349.045 412.848L349.167 413Z" fill="white"/>
<path d="M434.568 226.485L438.457 196.692C440.577 196.148 442.803 196.164 444.915 196.738C447.027 197.312 448.953 198.426 450.505 199.968C453.677 203.123 455.614 208.091 456.025 214.111L434.568 226.485Z" fill="#BA68C8"/>
<g opacity="0.4">
<path d="M434.568 226.485L438.457 196.692C440.577 196.148 442.803 196.164 444.915 196.738C447.027 197.312 448.953 198.426 450.505 199.968C453.677 203.123 455.614 208.091 456.025 214.111L434.568 226.485Z" fill="white"/>
</g>
<path d="M432.922 224.885L420.722 207.009C423.456 203.127 426.96 199.849 431.016 197.378C432.788 196.332 434.712 195.566 436.719 195.107L432.922 224.885Z" fill="#BA68C8"/>
<g opacity="0.2">
<path d="M432.922 224.885L420.722 207.009C423.456 203.127 426.96 199.849 431.016 197.378C432.788 196.332 434.712 195.566 436.719 195.107L432.922 224.885Z" fill="white"/>
</g>
<path d="M432.922 228.664L427.935 258.564C418.968 259.859 412.349 252.758 411.541 240.993C411.153 230.201 414.402 219.591 420.767 210.865L432.922 228.664Z" fill="#BA68C8"/>
<g opacity="0.7">
<path d="M432.922 228.664L427.935 258.564C418.968 259.859 412.349 252.758 411.541 240.993C411.153 230.201 414.402 219.591 420.767 210.865L432.922 228.664Z" fill="white"/>
</g>
<path d="M434.523 228.329L455.874 215.985C456.895 231.026 448.096 248.963 436.353 255.744C434.284 256.977 432.003 257.814 429.628 258.213L434.523 228.329Z" fill="#BA68C8"/>
<path d="M455.721 258.198L417.458 280.265C416.421 280.859 415.506 280.265 415.414 278.939C415.371 278.256 415.504 277.574 415.8 276.958C416.097 276.341 416.547 275.811 417.107 275.419L455.37 253.337C456.407 252.742 457.322 253.337 457.413 254.663C457.452 255.347 457.317 256.029 457.021 256.647C456.725 257.266 456.278 257.799 455.721 258.198Z" fill="#455A64"/>
<path d="M407.332 366.322L359.019 394.286L349.152 249.832L397.465 221.867L407.332 366.322Z" fill="#BA68C8"/>
<g opacity="0.2">
<path d="M407.332 366.322L359.019 394.286L349.152 249.832L397.465 221.867L407.332 366.322Z" fill="white"/>
</g>
<path d="M549.952 141.327L470.834 187.045C469.797 187.64 468.882 187.045 468.79 185.72C468.757 185.043 468.896 184.369 469.194 183.762C469.493 183.154 469.942 182.632 470.498 182.245L549.632 136.527C550.669 135.932 551.584 136.527 551.675 137.853C551.703 138.53 551.559 139.203 551.258 139.81C550.957 140.417 550.508 140.939 549.952 141.327Z" fill="#455A64"/>
<path d="M550.608 150.76L471.475 196.478C470.438 197.088 469.523 196.478 469.431 195.168C469.399 194.488 469.541 193.811 469.842 193.201C470.144 192.591 470.595 192.067 471.154 191.678L550.273 145.96C551.31 145.366 552.225 145.96 552.316 147.286C552.344 147.961 552.202 148.633 551.904 149.24C551.606 149.847 551.16 150.369 550.608 150.76Z" fill="#455A64"/>
<path d="M474.89 210.179L470.635 212.632L470.254 207.192L474.524 204.738L474.89 210.179Z" fill="#BA68C8"/>
<g opacity="0.2">
<path d="M474.89 210.179L470.635 212.632L470.254 207.192L474.524 204.738L474.89 210.179Z" fill="white"/>
</g>
<path d="M475.699 222.126L471.444 224.58L471.078 219.124L475.333 216.671L475.699 222.126Z" fill="#BA68C8"/>
<g opacity="0.4">
<path d="M475.699 222.126L471.444 224.58L471.078 219.124L475.333 216.671L475.699 222.126Z" fill="white"/>
</g>
<path d="M476.522 234.074L472.267 236.528L471.886 231.072L476.141 228.618L476.522 234.074Z" fill="#BA68C8"/>
<path d="M477.331 246.007L473.076 248.46L472.71 243.004L476.965 240.566L477.331 246.007Z" fill="#BA68C8"/>
<g opacity="0.7">
<path d="M477.331 246.007L473.076 248.46L472.71 243.004L476.965 240.566L477.331 246.007Z" fill="white"/>
</g>
<path d="M480.731 205.5C480.393 205.503 480.064 205.393 479.796 205.188C479.527 204.984 479.334 204.696 479.247 204.37C479.16 204.044 479.183 203.698 479.314 203.387C479.444 203.076 479.675 202.817 479.968 202.651L551.797 161.215C552.149 161.013 552.567 160.958 552.959 161.064C553.351 161.17 553.684 161.427 553.887 161.778C554.089 162.13 554.143 162.548 554.037 162.939C553.931 163.331 553.674 163.664 553.322 163.866L481.494 205.302C481.261 205.434 480.998 205.502 480.731 205.5Z" fill="#E0E0E0"/>
<path d="M481.555 217.448C481.218 217.45 480.889 217.34 480.62 217.136C480.352 216.931 480.159 216.644 480.071 216.318C479.984 215.992 480.008 215.646 480.138 215.335C480.269 215.023 480.499 214.764 480.793 214.598L552.606 173.162C552.78 173.061 552.973 172.996 553.172 172.97C553.371 172.944 553.574 172.957 553.768 173.009C553.962 173.062 554.144 173.152 554.304 173.275C554.463 173.398 554.596 173.551 554.695 173.726C554.894 174.076 554.947 174.49 554.841 174.878C554.735 175.267 554.48 175.597 554.131 175.798L482.318 217.234C482.087 217.371 481.824 217.445 481.555 217.448Z" fill="#E0E0E0"/>
<path d="M482.363 229.38C482.03 229.377 481.708 229.265 481.444 229.061C481.181 228.857 480.992 228.573 480.906 228.252C480.819 227.931 480.841 227.59 480.966 227.282C481.091 226.974 481.314 226.715 481.6 226.546L553.429 185.049C553.603 184.939 553.797 184.865 554 184.831C554.203 184.798 554.41 184.806 554.61 184.855C554.81 184.904 554.998 184.992 555.162 185.116C555.327 185.239 555.465 185.394 555.568 185.572C555.671 185.75 555.736 185.947 555.761 186.151C555.786 186.355 555.769 186.562 555.712 186.76C555.655 186.957 555.558 187.141 555.428 187.3C555.298 187.459 555.136 187.59 554.954 187.685L483.125 229.243C482.887 229.354 482.625 229.401 482.363 229.38Z" fill="#E0E0E0"/>
<path d="M483.186 241.328C482.848 241.331 482.52 241.221 482.251 241.016C481.982 240.812 481.789 240.524 481.702 240.198C481.615 239.872 481.638 239.526 481.769 239.215C481.9 238.904 482.13 238.645 482.424 238.478L554.237 197.042C554.411 196.942 554.603 196.876 554.803 196.85C555.002 196.824 555.205 196.837 555.399 196.89C555.593 196.942 555.775 197.033 555.934 197.156C556.093 197.278 556.227 197.432 556.326 197.606C556.525 197.956 556.577 198.371 556.472 198.759C556.366 199.147 556.111 199.478 555.762 199.679L483.949 241.13C483.716 241.262 483.453 241.33 483.186 241.328Z" fill="#E0E0E0"/>
<path d="M418.282 308.077C418.013 308.078 417.749 308.008 417.516 307.874C417.283 307.74 417.089 307.547 416.955 307.315C416.756 306.965 416.704 306.551 416.809 306.162C416.915 305.774 417.17 305.443 417.519 305.242L465.908 277.339C466.26 277.137 466.678 277.083 467.07 277.188C467.461 277.294 467.795 277.551 467.997 277.903C468.2 278.254 468.254 278.672 468.148 279.063C468.042 279.455 467.785 279.788 467.433 279.991L419.09 307.879C418.844 308.018 418.564 308.087 418.282 308.077Z" fill="#E0E0E0"/>
<path d="M419.089 320.024C418.752 320.027 418.423 319.917 418.154 319.712C417.886 319.508 417.693 319.22 417.605 318.894C417.518 318.568 417.542 318.222 417.672 317.911C417.803 317.6 418.033 317.341 418.327 317.175L466.67 289.286C466.844 289.176 467.038 289.102 467.241 289.069C467.444 289.035 467.651 289.043 467.851 289.092C468.051 289.141 468.239 289.23 468.403 289.353C468.568 289.477 468.706 289.632 468.809 289.81C468.912 289.988 468.977 290.185 469.002 290.389C469.027 290.593 469.01 290.8 468.953 290.997C468.896 291.195 468.799 291.378 468.669 291.537C468.539 291.696 468.377 291.828 468.195 291.923L419.852 319.811C419.621 319.948 419.358 320.022 419.089 320.024Z" fill="#E0E0E0"/>
<path d="M419.913 331.957C419.58 331.954 419.257 331.841 418.994 331.638C418.731 331.434 418.542 331.15 418.456 330.829C418.369 330.507 418.39 330.167 418.516 329.859C418.641 329.551 418.864 329.292 419.15 329.122L467.494 301.234C467.842 301.034 468.255 300.98 468.643 301.082C469.032 301.185 469.364 301.437 469.568 301.783C469.674 301.961 469.743 302.16 469.77 302.366C469.796 302.572 469.781 302.781 469.724 302.981C469.667 303.181 469.569 303.367 469.437 303.528C469.306 303.689 469.142 303.821 468.958 303.916L420.614 331.805C420.396 331.91 420.155 331.963 419.913 331.957Z" fill="#E0E0E0"/>
<path d="M420.721 343.905C420.384 343.907 420.055 343.797 419.786 343.593C419.518 343.388 419.325 343.1 419.237 342.774C419.15 342.448 419.174 342.103 419.304 341.791C419.435 341.48 419.665 341.221 419.959 341.055L468.302 313.167C468.654 312.965 469.072 312.911 469.464 313.016C469.855 313.122 470.189 313.379 470.391 313.731C470.594 314.082 470.648 314.5 470.542 314.891C470.436 315.283 470.179 315.616 469.827 315.818L421.484 343.707C421.251 343.838 420.988 343.906 420.721 343.905Z" fill="#E0E0E0"/>
<path d="M421.545 355.852C421.208 355.855 420.879 355.745 420.61 355.54C420.342 355.336 420.149 355.048 420.062 354.722C419.974 354.396 419.998 354.05 420.128 353.739C420.259 353.428 420.489 353.169 420.783 353.003L469.111 325.114C469.285 325.014 469.477 324.948 469.677 324.922C469.876 324.896 470.079 324.909 470.273 324.962C470.467 325.014 470.649 325.105 470.808 325.228C470.967 325.35 471.101 325.504 471.2 325.678C471.399 326.028 471.451 326.443 471.346 326.831C471.24 327.219 470.985 327.55 470.636 327.751L422.308 355.639C422.077 355.776 421.814 355.85 421.545 355.852Z" fill="#E0E0E0"/>
<path d="M496.973 300.533L485.947 306.888L482.79 260.591L493.816 254.236L496.973 300.533Z" fill="#BA68C8"/>
<g opacity="0.4">
<path d="M496.973 300.533L485.947 306.888L482.79 260.591L493.816 254.236L496.973 300.533Z" fill="white"/>
</g>
<path d="M496.698 312.115L487.716 317.297C487.152 317.617 486.664 317.297 486.603 316.58C486.583 316.208 486.659 315.837 486.825 315.504C486.991 315.17 487.24 314.885 487.548 314.675L496.515 309.494C497.08 309.159 497.583 309.494 497.629 310.21C497.647 310.58 497.572 310.949 497.409 311.282C497.246 311.615 497.002 311.902 496.698 312.115Z" fill="#455A64"/>
<path d="M512.605 291.511L501.579 297.866L498.422 251.584L509.448 245.214L512.605 291.511Z" fill="#BA68C8"/>
<g opacity="0.2">
<path d="M512.605 291.511L501.579 297.866L498.422 251.584L509.448 245.214L512.605 291.511Z" fill="white"/>
</g>
<path d="M512.33 303.093L503.362 308.275C502.798 308.595 502.295 308.275 502.249 307.559C502.226 307.188 502.3 306.817 502.463 306.483C502.626 306.15 502.873 305.864 503.179 305.654L512.147 300.472C512.711 300.137 513.214 300.472 513.26 301.188C513.283 301.559 513.209 301.93 513.046 302.264C512.883 302.597 512.636 302.883 512.33 303.093Z" fill="#455A64"/>
<path d="M528.235 282.49L517.225 288.845L514.053 242.562L525.079 236.192L528.235 282.49Z" fill="#BA68C8"/>
<path d="M527.961 294.072L518.994 299.253C518.43 299.573 517.926 299.253 517.881 298.537C517.862 298.167 517.938 297.798 518.1 297.465C518.263 297.132 518.508 296.845 518.811 296.632L527.793 291.451C528.358 291.131 528.846 291.451 528.907 292.167C528.926 292.539 528.85 292.91 528.684 293.243C528.519 293.577 528.269 293.862 527.961 294.072Z" fill="#455A64"/>
<path d="M543.883 273.468L532.857 279.823L529.7 233.541L540.726 227.171L543.883 273.468Z" fill="#BA68C8"/>
<g opacity="0.7">
<path d="M543.883 273.468L532.857 279.823L529.7 233.541L540.726 227.171L543.883 273.468Z" fill="white"/>
</g>
<path d="M543.685 285.05L534.702 290.231C534.138 290.551 533.65 290.231 533.589 289.515C533.569 289.143 533.646 288.772 533.811 288.439C533.977 288.105 534.226 287.82 534.535 287.61L543.502 282.429C544.066 282.109 544.569 282.429 544.615 283.145C544.633 283.515 544.558 283.884 544.395 284.217C544.233 284.55 543.988 284.837 543.685 285.05Z" fill="#455A64"/>
<path d="M559.514 264.446L548.488 270.801L545.331 224.519L556.357 218.149L559.514 264.446Z" fill="#BA68C8"/>
<g opacity="0.2">
<path d="M559.514 264.446L548.488 270.801L545.331 224.519L556.357 218.149L559.514 264.446Z" fill="white"/>
</g>
<path d="M559.24 276.028L550.273 281.21C549.708 281.53 549.205 281.21 549.159 280.493C549.136 280.123 549.21 279.752 549.373 279.418C549.536 279.084 549.783 278.799 550.09 278.588L559.057 273.407C559.621 273.087 560.124 273.407 560.17 274.123C560.193 274.494 560.119 274.865 559.956 275.198C559.793 275.532 559.546 275.818 559.24 276.028Z" fill="#455A64"/>
<path d="M173.316 616.202C161.116 603.554 153.857 571.612 165.813 561.584H226.661C238.618 571.612 231.42 603.538 219.158 616.187L218.838 616.538L218.411 616.949C218.06 617.284 217.694 617.62 217.298 617.94L217.008 618.183C216.703 618.412 216.413 618.656 216.078 618.884C215.589 619.253 215.08 619.594 214.553 619.905C204.472 625.788 188.124 625.788 178.044 619.905C177.516 619.589 177.007 619.243 176.519 618.869C176.214 618.656 175.939 618.442 175.649 618.214C175.526 618.126 175.408 618.029 175.299 617.924C174.92 617.624 174.559 617.304 174.216 616.964L173.743 616.492L173.316 616.202Z" fill="#37474F"/>
<path d="M221.369 557.546C235.262 565.638 235.262 578.774 221.369 586.882C207.476 594.989 184.982 594.974 171.043 586.882C157.105 578.789 157.15 565.638 171.043 557.546C184.936 549.454 207.491 549.438 221.369 557.546Z" fill="#455A64"/>
<path d="M214.69 561.462C224.892 567.421 224.892 577.067 214.69 583.011C204.488 588.954 187.972 588.954 177.769 583.011C167.567 577.067 167.582 567.421 177.769 561.462C187.956 555.504 204.503 555.488 214.69 561.462Z" fill="#263238"/>
<path d="M177.785 571.657C187.972 565.714 204.503 565.714 214.69 571.657C217.161 573.015 219.256 574.962 220.79 577.326C219.251 579.682 217.156 581.623 214.69 582.98C204.503 588.923 187.972 588.923 177.785 582.98C175.319 581.623 173.224 579.682 171.685 577.326C173.219 574.962 175.314 573.015 177.785 571.657Z" fill="white"/>
<path d="M187.911 513.214C183.809 518.396 171.456 520.682 165.31 507.972C159.546 496.07 153.446 484.823 151.585 480.419C151.329 479.847 151.19 479.23 151.179 478.604C151.167 477.977 151.282 477.355 151.517 476.774C151.752 476.193 152.102 475.666 152.546 475.224C152.99 474.782 153.519 474.434 154.101 474.201C154.101 474.201 153.934 467.435 165.737 471.153C177.541 474.872 186.127 481.181 191.968 492.031C197.809 502.882 195.46 511.172 187.911 513.214Z" fill="#BA68C8"/>
<g opacity="0.5">
<path d="M187.911 513.214C183.809 518.396 171.456 520.682 165.31 507.972C159.546 496.07 153.446 484.823 151.585 480.419C151.329 479.847 151.19 479.23 151.179 478.604C151.167 477.977 151.282 477.355 151.517 476.774C151.752 476.193 152.102 475.666 152.546 475.224C152.99 474.782 153.519 474.434 154.101 474.201C154.101 474.201 153.934 467.435 165.737 471.153C177.541 474.872 186.127 481.181 191.968 492.031C197.809 502.882 195.46 511.172 187.911 513.214Z" fill="white"/>
</g>
<path d="M194.179 530.145C193.801 527.868 193.292 525.613 192.654 523.394C191.364 518.987 189.759 514.679 187.85 510.502C183.966 502 178.87 494.105 172.722 487.063C169.305 483.039 165.516 479.345 161.406 476.03C161.269 475.939 161.208 476.213 161.284 476.289C168.237 482.556 174.31 489.733 179.341 497.624C184.195 505.378 188.024 513.728 190.732 522.465C191.48 524.903 192.257 527.372 192.852 529.841C193.447 532.309 193.981 534.915 194.606 537.46C194.606 537.719 195.064 537.841 195.064 537.46C194.954 535.003 194.659 532.558 194.179 530.145Z" fill="#BA68C8"/>
<path opacity="0.3" d="M194.179 530.145C193.801 527.868 193.292 525.613 192.654 523.394C191.364 518.987 189.759 514.679 187.85 510.502C183.966 502 178.87 494.105 172.722 487.063C169.305 483.039 165.516 479.345 161.406 476.03C161.269 475.939 161.208 476.213 161.284 476.289C168.237 482.556 174.31 489.733 179.341 497.624C184.195 505.378 188.024 513.728 190.732 522.465C191.48 524.903 192.257 527.372 192.852 529.841C193.447 532.309 193.981 534.915 194.606 537.46C194.606 537.719 195.064 537.841 195.064 537.46C194.954 535.003 194.659 532.558 194.179 530.145Z" fill="black"/>
<path d="M201.285 504.116C190.61 507.423 182.619 499.072 185.379 485.966C188.139 472.86 201.895 458.337 207.095 462.238C210.344 458.992 217.496 460.166 220.821 470.803C224.145 481.44 221.171 508.749 201.285 504.116Z" fill="#BA68C8"/>
<g opacity="0.3">
<path d="M201.285 504.116C190.61 507.423 182.619 499.072 185.379 485.966C188.139 472.86 201.895 458.337 207.095 462.238C210.344 458.992 217.496 460.166 220.821 470.803C224.145 481.44 221.171 508.749 201.285 504.116Z" fill="white"/>
</g>
<path d="M207.568 470.209C204.525 477.834 202.142 485.706 200.446 493.738C198.62 501.871 197.24 510.097 196.314 518.38C194.392 534.382 194.072 533.498 194.163 549.591C194.163 554.056 194.27 558.506 194.346 562.956C194.423 567.406 194.346 572.191 194.758 576.671C194.911 578.424 197.396 577.951 197.427 576.351C197.595 568.335 197.152 560.274 197.061 552.258C196.974 550.016 197.025 547.772 197.213 545.537C197.495 529.427 198.942 513.358 201.544 497.457C202.307 493.022 203.161 488.587 204.198 484.198C205.235 479.809 206.623 475.055 207.828 470.483C207.889 470.209 207.675 470.026 207.568 470.209Z" fill="#BA68C8"/>
<path opacity="0.3" d="M207.568 470.209C204.525 477.834 202.142 485.706 200.446 493.738C198.62 501.871 197.24 510.097 196.314 518.38C194.392 534.382 194.072 533.498 194.163 549.591C194.163 554.056 194.27 558.506 194.346 562.956C194.423 567.406 194.346 572.191 194.758 576.671C194.911 578.424 197.396 577.951 197.427 576.351C197.595 568.335 197.152 560.274 197.061 552.258C196.974 550.016 197.025 547.772 197.213 545.537C197.495 529.427 198.942 513.358 201.544 497.457C202.307 493.022 203.161 488.587 204.198 484.198C205.235 479.809 206.623 475.055 207.828 470.483C207.889 470.209 207.675 470.026 207.568 470.209Z" fill="black"/>
<path d="M176.504 539.502C175.131 546.436 165.646 551.435 154.665 546.893C143.685 542.352 122.06 513.87 131.927 510.715C131.394 505.549 161.269 501.297 176.062 519.508C186.828 532.751 176.504 539.502 176.504 539.502Z" fill="#BA68C8"/>
<g opacity="0.7">
<path d="M176.504 539.502C175.131 546.436 165.646 551.435 154.665 546.893C143.685 542.352 122.06 513.87 131.927 510.715C131.394 505.549 161.269 501.297 176.062 519.508C186.828 532.751 176.504 539.502 176.504 539.502Z" fill="white"/>
</g>
<path d="M192.196 549.789C190.816 548.062 189.323 546.428 187.728 544.897C184.526 541.728 181.167 538.722 177.663 535.891C170.469 530.163 162.713 525.18 154.513 521.017C149.997 518.608 145.331 516.49 140.543 514.677C140.421 514.677 140.543 514.875 140.543 514.921C144.539 516.811 148.535 518.64 152.393 520.788C156.37 523.032 160.228 525.478 163.953 528.118C171.192 533.164 178.025 538.769 184.388 544.882C186.188 546.619 187.911 548.433 189.726 550.155C191.54 551.877 193.66 553.568 195.46 555.427C195.734 555.702 196.207 555.58 195.917 555.184C194.697 553.37 193.538 551.526 192.196 549.789Z" fill="#BA68C8"/>
<path opacity="0.3" d="M192.196 549.789C190.816 548.062 189.323 546.428 187.728 544.897C184.526 541.728 181.167 538.722 177.663 535.891C170.469 530.163 162.713 525.18 154.513 521.017C149.997 518.608 145.331 516.49 140.543 514.677C140.421 514.677 140.543 514.875 140.543 514.921C144.539 516.811 148.535 518.64 152.393 520.788C156.37 523.032 160.228 525.478 163.953 528.118C171.192 533.164 178.025 538.769 184.388 544.882C186.188 546.619 187.911 548.433 189.726 550.155C191.54 551.877 193.66 553.568 195.46 555.427C195.734 555.702 196.207 555.58 195.917 555.184C194.697 553.37 193.538 551.526 192.196 549.789Z" fill="black"/>
<path d="M237.23 531.151C237.047 527.25 217.405 527.463 208.163 534.869C198.922 542.276 197.854 549.545 203.588 552.075C202.582 560.304 215.59 565.79 227.242 555.427C238.893 545.065 241.44 531.974 237.23 531.151Z" fill="#BA68C8"/>
<path opacity="0.3" d="M237.23 531.151C237.047 527.25 217.405 527.463 208.163 534.869C198.922 542.276 197.854 549.545 203.588 552.075C202.582 560.304 215.59 565.79 227.242 555.427C238.893 545.065 241.44 531.974 237.23 531.151Z" fill="white"/>
<path d="M217.863 541.468C208.842 545.466 201.259 552.123 196.131 560.548C195.841 561.02 196.588 561.95 196.909 561.432C202.054 553.122 209.275 546.295 217.863 541.621C217.863 541.621 217.939 541.423 217.863 541.468Z" fill="#BA68C8"/>
<path opacity="0.3" d="M217.863 541.468C208.842 545.466 201.259 552.123 196.131 560.548C195.841 561.02 196.588 561.95 196.909 561.432C202.054 553.122 209.275 546.295 217.863 541.621C217.863 541.621 217.939 541.423 217.863 541.468Z" fill="black"/>
<path d="M204.778 564.739C198.114 571.276 205.479 579.369 216.277 583.377C225.435 586.448 235.411 585.986 244.246 582.081C249.446 579.491 250.529 578.18 250.529 578.18C249.175 573.588 247.323 569.158 245.008 564.967C242.15 560.488 238.061 556.927 233.231 554.708C228.401 552.489 223.034 551.707 217.771 552.456C203.939 554.224 202.811 559.938 204.778 564.739Z" fill="#BA68C8"/>
<g opacity="0.5">
<path d="M204.778 564.739C198.114 571.276 205.479 579.369 216.277 583.377C225.435 586.448 235.411 585.986 244.246 582.081C249.446 579.491 250.529 578.18 250.529 578.18C249.175 573.588 247.323 569.158 245.008 564.967C242.15 560.488 238.061 556.927 233.231 554.708C228.401 552.489 223.034 551.707 217.771 552.456C203.939 554.224 202.811 559.938 204.778 564.739Z" fill="white"/>
</g>
<path d="M232.731 569.646C227.382 566.839 221.692 564.734 215.804 563.382C210.009 562.27 202.887 562.209 198.19 566.339C196.375 567.939 193.95 571.398 195.429 573.852C195.582 574.096 196.314 574.553 196.482 574.065C196.83 572.493 197.341 570.961 198.007 569.493C198.883 568.047 200.138 566.867 201.636 566.08C205.412 564.208 209.654 563.488 213.836 564.007C220.44 564.632 226.631 567.284 232.701 569.768C232.792 569.829 232.792 569.661 232.731 569.646Z" fill="#BA68C8"/>
<path opacity="0.3" d="M232.731 569.646C227.382 566.839 221.692 564.734 215.804 563.382C210.009 562.27 202.887 562.209 198.19 566.339C196.375 567.939 193.95 571.398 195.429 573.852C195.582 574.096 196.314 574.553 196.482 574.065C196.83 572.493 197.341 570.961 198.007 569.493C198.883 568.047 200.138 566.867 201.636 566.08C205.412 564.208 209.654 563.488 213.836 564.007C220.44 564.632 226.631 567.284 232.701 569.768C232.792 569.829 232.792 569.661 232.731 569.646Z" fill="black"/>
<path d="M206.653 523.531C204.991 529.383 212.449 534.839 221.751 531.715C231.054 528.591 240.692 525.619 248.607 525.619C256.522 525.619 261.554 520.316 259.877 516.765C258.199 513.214 256.324 504.924 236.147 502.547C215.971 500.169 206.852 507.286 202.597 512.848C198.342 518.411 203.237 524.522 206.653 523.531Z" fill="#BA68C8"/>
<g opacity="0.7">
<path d="M206.653 523.531C204.991 529.383 212.449 534.839 221.751 531.715C231.054 528.591 240.692 525.619 248.607 525.619C256.522 525.619 261.554 520.316 259.877 516.765C258.199 513.214 256.324 504.924 236.147 502.547C215.971 500.169 206.852 507.286 202.597 512.848C198.342 518.411 203.237 524.522 206.653 523.531Z" fill="white"/>
</g>
<path d="M244.108 511.248C241.973 510.769 239.784 510.57 237.596 510.654C235.486 510.658 233.38 510.831 231.298 511.172C227.201 511.888 223.214 513.127 219.433 514.86C212.342 517.999 205.312 522.099 200.706 528.484C198.216 531.893 196.214 535.632 194.758 539.594C194.499 540.34 195.948 540.767 196.283 540.097C197.749 536.768 199.436 533.54 201.331 530.435C203.38 527.291 206.003 524.562 209.063 522.388C215.484 517.781 222.733 514.454 230.414 512.589C232.66 512.072 234.945 511.736 237.246 511.584C239.536 511.548 241.827 511.634 244.108 511.843C244.459 511.858 244.322 511.309 244.108 511.248Z" fill="#BA68C8"/>
<path opacity="0.3" d="M244.108 511.248C241.973 510.769 239.784 510.57 237.596 510.654C235.486 510.658 233.38 510.831 231.298 511.172C227.201 511.888 223.214 513.127 219.433 514.86C212.342 517.999 205.312 522.099 200.706 528.484C198.216 531.893 196.214 535.632 194.758 539.594C194.499 540.34 195.948 540.767 196.283 540.097C197.749 536.768 199.436 533.54 201.331 530.435C203.38 527.291 206.003 524.562 209.063 522.388C215.484 517.781 222.733 514.454 230.414 512.589C232.66 512.072 234.945 511.736 237.246 511.584C239.536 511.548 241.827 511.634 244.108 511.843C244.459 511.858 244.322 511.309 244.108 511.248Z" fill="black"/>
<path d="M190.061 556.494C188.536 550.49 180.911 547.107 170.892 546.375C165.976 545.93 161.035 546.888 156.643 549.138C152.251 551.388 148.588 554.837 146.08 559.085C140.864 568 138.699 575.086 141.871 576.26C145.043 577.433 158.432 579.308 167.079 580.039C175.726 580.771 186.539 579.262 193.584 572.694C200.63 566.126 198.312 557.881 190.061 556.494Z" fill="#BA68C8"/>
<path opacity="0.3" d="M190.061 556.494C188.536 550.49 180.911 547.107 170.892 546.375C165.976 545.93 161.035 546.888 156.643 549.138C152.251 551.388 148.588 554.837 146.08 559.085C140.864 568 138.699 575.086 141.871 576.26C145.043 577.433 158.432 579.308 167.079 580.039C175.726 580.771 186.539 579.262 193.584 572.694C200.63 566.126 198.312 557.881 190.061 556.494Z" fill="white"/>
<path d="M190.427 555.702C186.911 554.796 183.246 554.625 179.661 555.199C176.201 555.613 172.795 556.4 169.504 557.546C166.025 558.781 162.658 560.31 159.439 562.118C157.746 563.032 156.084 564.023 154.467 565.059C152.904 565.962 151.41 566.981 149.999 568.107C149.999 568.107 149.999 568.351 149.999 568.305C151.753 567.558 153.278 566.537 154.803 565.653C156.328 564.769 158.188 563.779 159.912 562.895C163.126 561.241 166.46 559.83 169.885 558.674C173.315 557.516 176.866 556.754 180.469 556.403C183.836 556.23 187.211 556.316 190.565 556.662C191.236 556.708 190.854 555.839 190.427 555.702Z" fill="#BA68C8"/>
<path opacity="0.3" d="M190.427 555.702C186.911 554.796 183.246 554.625 179.661 555.199C176.201 555.613 172.795 556.4 169.504 557.546C166.025 558.781 162.658 560.31 159.439 562.118C157.746 563.032 156.084 564.023 154.467 565.059C152.904 565.962 151.41 566.981 149.999 568.107C149.999 568.107 149.999 568.351 149.999 568.305C151.753 567.558 153.278 566.537 154.803 565.653C156.328 564.769 158.188 563.779 159.912 562.895C163.126 561.241 166.46 559.83 169.885 558.674C173.315 557.516 176.866 556.754 180.469 556.403C183.836 556.23 187.211 556.316 190.565 556.662C191.236 556.708 190.854 555.839 190.427 555.702Z" fill="black"/>
<path d="M271.268 208.426C271.268 184.226 243.818 164.613 210.084 164.613C176.35 164.613 148.885 184.226 148.885 208.426C148.885 232.626 176.335 252.239 210.084 252.239C212.112 252.239 214.125 252.163 216.184 252.026C222.864 264.568 234.225 266.732 243.07 265.742C239.932 264.274 237.333 261.86 235.639 258.839C233.946 255.818 233.243 252.343 233.63 248.902C255.698 242.303 271.268 226.668 271.268 208.426Z" fill="white"/>
<path d="M239.273 266.58C234.447 266.717 229.68 265.484 225.526 263.024C221.372 260.564 218.001 256.978 215.803 252.681C213.897 252.803 211.991 252.864 210.145 252.864C176.046 252.864 148.306 232.931 148.306 208.426C148.306 183.921 175.985 163.988 210.084 163.988C244.184 163.988 271.909 183.921 271.909 208.426C271.909 226.363 257.101 242.41 234.149 249.374C233.88 252.623 234.612 255.876 236.248 258.695C237.884 261.515 240.345 263.767 243.3 265.147C243.427 265.205 243.533 265.304 243.599 265.428C243.665 265.552 243.689 265.694 243.667 265.833C243.644 265.971 243.576 266.099 243.474 266.195C243.372 266.291 243.241 266.352 243.101 266.366C241.83 266.508 240.552 266.579 239.273 266.58ZM216.108 251.34C216.224 251.34 216.337 251.371 216.437 251.43C216.536 251.489 216.618 251.574 216.673 251.676C223.108 263.76 233.783 265.543 240.783 265.223C238.076 263.48 235.907 261.019 234.517 258.116C233.128 255.212 232.573 251.98 232.914 248.78C232.927 248.654 232.978 248.534 233.059 248.436C233.141 248.338 233.249 248.267 233.372 248.232C256.003 241.541 270.704 225.906 270.704 208.426C270.704 184.622 243.467 165.238 210.084 165.238C176.702 165.238 149.526 184.607 149.526 208.411C149.526 232.215 176.686 251.584 210.084 251.584C212.037 251.584 214.05 251.584 216.063 251.371L216.108 251.34Z" fill="#BA68C8"/>
<path d="M189.619 209.676C189.616 210.905 189.249 212.106 188.563 213.126C187.877 214.146 186.905 214.941 185.767 215.409C184.63 215.878 183.38 215.999 182.174 215.757C180.968 215.515 179.86 214.922 178.992 214.052C178.123 213.182 177.532 212.074 177.293 210.868C177.054 209.662 177.179 208.413 177.65 207.278C178.121 206.142 178.919 205.172 179.942 204.49C180.965 203.807 182.167 203.443 183.397 203.443C184.215 203.443 185.026 203.604 185.782 203.918C186.537 204.231 187.224 204.69 187.802 205.269C188.38 205.848 188.838 206.536 189.15 207.292C189.462 208.048 189.621 208.858 189.619 209.676Z" fill="#BA68C8"/>
<path d="M216.307 209.676C216.303 210.905 215.936 212.106 215.25 213.126C214.565 214.146 213.592 214.941 212.455 215.409C211.318 215.878 210.067 215.999 208.861 215.757C207.655 215.515 206.548 214.922 205.679 214.052C204.811 213.182 204.22 212.074 203.981 210.868C203.742 209.662 203.866 208.413 204.337 207.278C204.809 206.142 205.606 205.172 206.629 204.49C207.652 203.807 208.854 203.443 210.084 203.443C210.903 203.443 211.713 203.604 212.469 203.918C213.225 204.231 213.912 204.69 214.489 205.269C215.067 205.848 215.525 206.536 215.837 207.292C216.149 208.048 216.309 208.858 216.307 209.676Z" fill="#BA68C8"/>
<path d="M242.994 209.676C242.994 210.909 242.628 212.115 241.942 213.14C241.256 214.166 240.281 214.964 239.14 215.436C238 215.907 236.745 216.03 235.534 215.788C234.324 215.546 233.213 214.951 232.341 214.078C231.469 213.205 230.876 212.092 230.638 210.882C230.399 209.672 230.524 208.419 230.999 207.28C231.473 206.141 232.275 205.169 233.303 204.486C234.33 203.803 235.538 203.44 236.772 203.443C237.591 203.443 238.401 203.604 239.157 203.918C239.913 204.231 240.599 204.69 241.177 205.269C241.755 205.848 242.213 206.536 242.525 207.292C242.837 208.048 242.996 208.858 242.994 209.676Z" fill="#BA68C8"/>
<g opacity="0.3">
<path d="M189.619 209.676C189.616 210.905 189.249 212.106 188.563 213.126C187.877 214.146 186.905 214.941 185.767 215.409C184.63 215.878 183.38 215.999 182.174 215.757C180.968 215.515 179.86 214.922 178.992 214.052C178.123 213.182 177.532 212.074 177.293 210.868C177.054 209.662 177.179 208.413 177.65 207.278C178.121 206.142 178.919 205.172 179.942 204.49C180.965 203.807 182.167 203.443 183.397 203.443C184.215 203.443 185.026 203.604 185.782 203.918C186.537 204.231 187.224 204.69 187.802 205.269C188.38 205.848 188.838 206.536 189.15 207.292C189.462 208.048 189.621 208.858 189.619 209.676Z" fill="white"/>
<path d="M216.307 209.676C216.303 210.905 215.936 212.106 215.25 213.126C214.565 214.146 213.592 214.941 212.455 215.409C211.318 215.878 210.067 215.999 208.861 215.757C207.655 215.515 206.548 214.922 205.679 214.052C204.811 213.182 204.22 212.074 203.981 210.868C203.742 209.662 203.866 208.413 204.337 207.278C204.809 206.142 205.606 205.172 206.629 204.49C207.652 203.807 208.854 203.443 210.084 203.443C210.903 203.443 211.713 203.604 212.469 203.918C213.225 204.231 213.912 204.69 214.489 205.269C215.067 205.848 215.525 206.536 215.837 207.292C216.149 208.048 216.309 208.858 216.307 209.676Z" fill="white"/>
<path d="M242.995 209.676C242.995 210.909 242.629 212.115 241.943 213.14C241.257 214.166 240.282 214.964 239.141 215.436C238.001 215.907 236.746 216.03 235.535 215.788C234.325 215.546 233.214 214.951 232.342 214.078C231.47 213.205 230.877 212.092 230.639 210.882C230.4 209.672 230.525 208.419 231 207.28C231.474 206.141 232.276 205.169 233.304 204.486C234.331 203.803 235.539 203.44 236.773 203.443C237.592 203.443 238.402 203.604 239.158 203.918C239.914 204.231 240.6 204.69 241.178 205.269C241.756 205.848 242.214 206.536 242.526 207.292C242.838 208.048 242.997 208.858 242.995 209.676Z" fill="white"/>
</g>
<path d="M310.554 445.643L278.071 464.372L274.517 466.429L228.767 492.885C230.093 476.259 233.342 437.078 236.392 403.491L309.776 403.049C310.188 415.972 310.432 430.876 310.554 445.643Z" fill="#263238"/>
<path d="M297.057 431.455C296.813 432.125 292.65 442.778 281.365 445.368L278.071 464.357L274.518 466.414L277.568 442.702C285.078 441.072 291.891 437.14 297.057 431.455Z" fill="black"/>
<path d="M294.51 311.749C302.287 312.74 304.056 313.273 319.368 322.417C331.842 329.899 341.008 335.172 341.008 335.172C341.008 335.172 351.439 345.581 352.369 348.171C353.3 350.762 352.659 357.94 348.023 362.298C344.195 365.88 341.923 364.721 338.629 363.594C334.572 362.222 307.091 350.153 307.091 350.153L294.51 311.749Z" fill="#37474F"/>
<path d="M387.277 298.125C385.493 296.891 385.035 298.598 384.38 298.781C384.38 298.781 386.454 296.708 383.373 294.559C381.482 293.233 380.323 295.946 380.323 295.565C380.323 295.184 383.129 289.927 385.432 285.263C387.613 280.844 386.103 279.427 385.432 279.015C384.761 278.604 383.907 278.847 381.985 282.063C380.064 285.279 374.253 294.818 372.957 296.8C371.661 298.781 370.776 299.695 370.227 296.952C369.991 294.595 369.208 292.325 367.94 290.323C365.683 287.58 363.7 288.57 363.944 290.567C364.28 293.371 363.944 296.662 364.066 301.234C364.066 303.612 363.99 305.806 364.066 307.467C364.493 313.212 361.016 315.59 356.731 319.765C353.254 323.179 347.154 327.857 339.62 335.081C334.816 339.653 333.261 354.892 339.285 360.317C345.308 365.743 349.136 361.399 357.676 350.427C363.166 343.341 370.822 330.128 372.927 327.111C375.031 324.093 375.794 322.188 378.447 320.817C381.563 319.177 384.145 316.681 385.889 313.624C386.926 312.1 388.939 309.281 390.175 306.979C391.41 304.678 391.7 303.002 390.434 301.889C388.68 300.366 387.994 302.377 387.826 302.149C387.658 301.92 389.809 299.893 387.277 298.125Z" fill="#FFA8A7"/>
<path d="M383.815 309.875C383.251 308.915 383.998 307.3 383.998 307.3C383.598 307.853 383.032 308.264 382.382 308.473C381.866 308.569 381.334 308.485 380.873 308.235C380.412 307.986 380.051 307.585 379.85 307.101C379.781 306.346 379.969 305.588 380.384 304.953C379.895 305.339 379.319 305.601 378.706 305.715C377.669 305.913 376.8 305.196 376.51 303.932C376.221 302.667 377.898 299.71 379.561 297.013C378.595 297.879 377.754 298.874 377.059 299.969C376.197 301.046 375.644 302.337 375.458 303.703C374.773 302.59 373.818 301.668 372.683 301.021C375.077 303.749 376.404 310.728 374.955 315.178C375.906 313.927 376.551 312.47 376.837 310.924C377.123 309.378 377.042 307.787 376.602 306.279C376.949 306.532 377.369 306.669 377.799 306.669C378.23 306.669 378.649 306.532 378.996 306.279C378.883 306.789 378.94 307.323 379.157 307.798C379.375 308.274 379.741 308.666 380.201 308.915C380.565 309.211 381.008 309.392 381.475 309.436C381.943 309.479 382.412 309.383 382.824 309.159C382.824 309.159 382.428 310.149 383.724 310.957C385.02 311.765 386.133 311.079 386.987 309.829C386.793 310.058 386.552 310.243 386.28 310.372C386.008 310.5 385.712 310.569 385.412 310.573C385.111 310.577 384.813 310.517 384.538 310.397C384.262 310.276 384.016 310.099 383.815 309.875Z" fill="#F28F8F"/>
<path d="M240.631 318.302C235.086 326.274 232.655 336 233.799 345.642C235.324 359.982 236.605 369.232 236.849 374.795C237.123 383.329 235.049 417.633 235.049 417.633C245.587 430.434 298.582 431.531 310.34 408.001C310.34 408.001 309.776 389.379 309.745 370.299C309.745 356.34 309.928 343.523 308.22 335.248C305.871 324.23 300 314.462 294.647 311.688L281.471 310.941L264.863 310.134L240.631 318.302Z" fill="#455A64"/>
<path d="M260.029 303.276C258.931 297.805 253.304 292.228 250.711 287.503C248.119 282.779 246.7 279.411 246.853 275.068C246.82 273.753 247.063 272.445 247.568 271.23C248.072 270.014 248.826 268.918 249.781 268.012C249.293 258.625 258.794 253.23 265.138 251.432C271.678 249.622 278.551 249.366 285.207 250.685C288.776 251.325 291.978 252.651 294.83 249.511C295.458 250.633 295.693 251.933 295.497 253.203C295.3 254.473 294.685 255.641 293.748 256.522C295.134 256.646 296.464 257.129 297.606 257.924C298.21 258.275 298.706 258.784 299.042 259.396C299.378 260.008 299.54 260.701 299.512 261.398C299.253 262.351 298.724 263.209 297.987 263.867C298.763 264.221 299.386 264.842 299.742 265.617C300.097 266.392 300.162 267.27 299.924 268.088C299.641 269.081 299.061 269.964 298.262 270.618C297.85 270.969 297.286 271.167 296.889 271.517C296.493 271.868 296.477 272.142 296.188 272.447C295.898 272.752 296.005 273.437 295.959 273.742C295.842 274.618 295.541 275.46 295.074 276.211C294.309 277.418 293.263 278.422 292.024 279.137C288.029 281.179 283.545 281.941 279.199 282.962L274.044 284.181C273.754 284.181 272.184 284.379 272.001 284.654L260.029 303.276Z" fill="#263238"/>
<path d="M253.38 296.418C254.352 297.076 255.513 297.395 256.685 297.326C257.857 297.257 258.973 296.804 259.861 296.037L258.855 312.572C262.088 319.979 271.055 316.809 281.349 329.686C281.349 329.686 284.643 324.291 281.943 313.608L282.431 308.061C284.614 308.018 286.793 307.861 288.959 307.589C293.534 306.873 295.913 302.804 297.331 296.708C298.585 291.249 298.653 285.584 297.529 280.097C297.189 278.598 297.065 277.059 297.163 275.525C297.414 272.23 296.892 268.921 295.638 265.863C290.789 262.175 279.778 261.17 269.713 267.662C271.055 273.757 268.828 278.604 264.467 281.042C264.711 282.672 265.031 286.818 262.332 286.818C260.38 286.818 260.181 284.379 258.123 282.246C256.064 280.112 251.397 279.716 249.674 282.932C248.529 285.243 248.274 287.893 248.958 290.38C249.641 292.866 251.215 295.015 253.38 296.418Z" fill="#FFA8A7"/>
<path d="M284.231 276.638L292.543 287.793L284.887 289.789L284.231 276.638Z" fill="#F28F8F"/>
<path d="M279.031 274.839L274.807 276.927C274.544 276.349 274.512 275.691 274.719 275.09C274.927 274.489 275.356 273.99 275.92 273.696C276.199 273.562 276.501 273.484 276.81 273.469C277.119 273.454 277.428 273.501 277.719 273.608C278.009 273.714 278.275 273.878 278.5 274.09C278.726 274.302 278.907 274.557 279.031 274.839Z" fill="#263238"/>
<path d="M295.226 275.815L291.048 273.59C291.179 273.321 291.363 273.081 291.588 272.883C291.812 272.686 292.074 272.535 292.357 272.438C292.641 272.342 292.94 272.303 293.239 272.322C293.538 272.342 293.83 272.421 294.098 272.554C294.672 272.845 295.111 273.348 295.321 273.956C295.532 274.565 295.498 275.231 295.226 275.815Z" fill="#263238"/>
<path d="M282.432 308.061C275.569 307.436 270.14 306.781 266.45 301.965C264.723 299.464 263.267 296.787 262.104 293.98C262.634 297.482 263.72 300.878 265.321 304.038C267.121 307.162 271.421 309.92 282.219 310.545L282.432 308.061Z" fill="#F28F8F"/>
<path d="M279.671 280.569C279.682 280.945 279.582 281.315 279.385 281.634C279.187 281.954 278.9 282.208 278.559 282.366C278.218 282.524 277.838 282.579 277.466 282.523C277.095 282.468 276.747 282.304 276.468 282.053C276.188 281.803 275.988 281.475 275.892 281.112C275.797 280.749 275.81 280.366 275.93 280.01C276.05 279.654 276.272 279.341 276.569 279.11C276.865 278.879 277.223 278.74 277.597 278.71C277.856 278.696 278.115 278.732 278.359 278.818C278.603 278.904 278.828 279.037 279.02 279.21C279.213 279.382 279.37 279.591 279.482 279.825C279.593 280.058 279.658 280.311 279.671 280.569Z" fill="#263238"/>
<path d="M277.903 292.563L285.528 294.605C285.225 295.635 284.536 296.509 283.604 297.043C282.671 297.577 281.569 297.73 280.526 297.47C280.027 297.327 279.561 297.086 279.157 296.76C278.753 296.434 278.418 296.03 278.174 295.572C277.929 295.114 277.779 294.612 277.732 294.095C277.686 293.578 277.744 293.057 277.903 292.563Z" fill="#B16668"/>
<path d="M282.767 297.409C282.536 296.279 281.897 295.275 280.971 294.586C280.046 293.897 278.899 293.573 277.75 293.675C277.73 294.531 277.996 295.37 278.507 296.058C279.018 296.745 279.745 297.242 280.571 297.47C281.295 297.656 282.056 297.635 282.767 297.409Z" fill="#F28F8F"/>
<path d="M291.856 277.75C292.375 277.77 292.866 277.994 293.22 278.374C293.574 278.754 293.764 279.258 293.747 279.777C293.726 280.153 293.595 280.514 293.371 280.816C293.146 281.118 292.837 281.348 292.483 281.476C292.129 281.604 291.745 281.625 291.378 281.537C291.012 281.449 290.68 281.255 290.423 280.98C290.166 280.704 289.996 280.36 289.934 279.988C289.871 279.617 289.919 279.236 290.072 278.892C290.225 278.548 290.475 278.256 290.793 278.053C291.11 277.85 291.48 277.745 291.856 277.75Z" fill="#263238"/>
<path d="M280.038 337.793C280.282 344.24 277.11 374.673 276.988 378.65C276.866 382.628 283.317 395.49 284.613 397.684C285.909 399.879 286.992 400.321 288.532 397.136C290.994 391.24 292.428 384.968 292.772 378.589C292.772 372.493 287.023 344.636 284.903 336.97C284.903 334.898 280.038 335.172 280.038 337.793Z" fill="#BA68C8"/>
<path opacity="0.15" d="M280.038 337.793C280.282 344.24 277.11 374.673 276.988 378.65C276.866 382.628 283.317 395.49 284.613 397.684C285.909 399.879 286.992 400.321 288.532 397.136C290.994 391.24 292.428 384.968 292.772 378.589C292.772 372.493 287.023 344.636 284.903 336.97C284.903 334.898 280.038 335.172 280.038 337.793Z" fill="white"/>
<path d="M277.994 326.775C276.142 326.299 274.362 325.576 272.702 324.626L269.927 329.777C271.916 330.984 274.047 331.941 276.271 332.627C276.732 332.492 277.15 332.24 277.484 331.896C277.818 331.551 278.057 331.126 278.177 330.661C278.504 329.377 278.44 328.024 277.994 326.775Z" fill="#BA68C8"/>
<path opacity="0.15" d="M277.994 326.775C276.142 326.299 274.362 325.576 272.702 324.626L269.927 329.777C271.916 330.984 274.047 331.941 276.271 332.627C276.732 332.492 277.15 332.24 277.484 331.896C277.818 331.551 278.057 331.126 278.177 330.661C278.504 329.377 278.44 328.024 277.994 326.775Z" fill="black"/>
<path d="M286.428 322.051C285.825 323.514 284.84 324.787 283.576 325.739L285.635 331.362C285.635 331.362 289.295 329.031 289.905 326.074C290.515 323.118 286.428 322.051 286.428 322.051Z" fill="#BA68C8"/>
<path opacity="0.15" d="M286.428 322.051C285.825 323.514 284.84 324.787 283.576 325.739L285.635 331.362C285.635 331.362 289.295 329.031 289.905 326.074C290.515 323.118 286.428 322.051 286.428 322.051Z" fill="black"/>
<path d="M277.994 326.775C280.358 327.4 283.148 326.775 283.575 325.785C284.46 326.56 285.163 327.52 285.635 328.597C286.107 329.674 286.335 330.842 286.305 332.018C286.304 333.8 285.819 335.548 284.902 337.077C284.902 337.077 283.377 335.919 280.037 337.839C278.542 336.288 277.274 334.533 276.271 332.627C276.271 332.627 278.512 329.427 277.994 326.775Z" fill="#BA68C8"/>
<path d="M279.595 326.958C279.08 326.937 278.569 326.861 278.07 326.73C276.408 324.931 275.249 323.926 274.593 324.535C272.908 326.847 271.462 329.323 270.277 331.926C269.545 333.572 269.698 333.572 267.425 332.063C263.431 329.413 259.941 326.075 257.116 322.203C255.357 319.719 253.989 316.979 253.06 314.081C253.06 314.081 255.622 310.53 256.384 309.174C257.909 306.553 257.787 305.471 259.266 305.699V307.543C259.51 309.829 262.82 311.886 266.022 314.645C269.225 317.403 274.395 320.024 275.615 321.213C277.037 323.06 278.366 324.978 279.595 326.958Z" fill="#37474F"/>
<path d="M290.529 328.04C290.163 328.97 287.205 321.67 285.741 321.822C285.161 321.822 284.216 324.367 283.407 325.983C283.022 326.328 282.555 326.569 282.05 326.684C282.401 324.23 282.553 321.35 282.66 320.359C282.725 318.087 282.484 315.816 281.943 313.608L282.431 308.061H283.758C284.494 308.832 285.177 309.652 285.802 310.515C287.22 312.846 289.843 317.083 290.377 319.857C290.88 322.557 290.932 325.323 290.529 328.04Z" fill="#37474F"/>
<path d="M240.631 318.302C231.481 321.152 224.725 324.23 221.263 332.018C217.801 339.805 212.113 359.068 208.941 370.711C206.242 380.692 204.595 389.927 206.943 394.347L233.128 383.862L242.522 356.614C242.522 356.614 248.82 328.665 240.631 318.302Z" fill="#37474F"/>
<path d="M231.146 370.299C229.285 372.768 227.181 373.713 222.606 375.724C218.32 377.614 213.455 379.382 210.726 383.908C211.564 379.687 213.943 377.629 219.266 374.764C224.588 371.899 232.411 368.668 232.411 368.668L231.146 370.299Z" fill="#263238"/>
<path d="M231.145 370.299C229.285 372.768 227.18 373.713 222.605 375.724C218.32 377.614 213.257 378.894 209.902 383.435C207.157 387.154 205.525 391.421 206.943 394.393C207.919 396.435 212.799 398.141 219.784 397.44C225.365 396.831 229.285 392.64 235.034 388.754C239.96 385.432 242.537 383.298 242.537 383.298L231.145 370.299Z" fill="#FFA8A7"/>
<path d="M240.479 375.785C238.343 373.789 237.901 371.686 234.775 370.04C231.649 368.394 229.727 368.516 226.418 366.992C223.108 365.468 220.424 364.66 217.984 365.468C215.544 366.276 215.987 367.754 217.862 368.851C219.738 369.948 222.986 371.396 225.244 372.935C227.501 374.475 229.681 375.313 229.819 378.117C229.867 382.543 229.679 386.969 229.254 391.375C228.797 396.084 227.989 399.894 228.355 400.397C228.721 400.9 230.749 401.052 231.893 398.4C233.036 395.749 234.348 386.209 234.348 386.209C234.348 386.209 235.476 392.792 235.98 397.334C236.483 401.875 236.757 405.35 236.91 406.325C237.062 407.3 240.28 406.447 240.692 402.987C240.788 398.444 240.594 393.898 240.113 389.379C240.113 389.379 242.949 393.951 244.688 396.876C246.426 399.802 248.775 403.856 249.507 404.847C250.239 405.837 252.236 403.978 251.657 401.265C251.077 398.553 247.372 391.969 247.372 391.969C247.372 391.969 251.748 396.267 252.496 396.678C253.243 397.09 255.546 396.678 254.631 393.63C254.051 391.634 252.724 390.4 249.186 386.605C245.648 382.81 245.648 381.21 244.611 379.473C243.102 377.187 242.019 377.248 240.479 375.785Z" fill="#FFA8A7"/>
<path d="M217.985 365.499C217.573 365.665 217.187 365.891 216.841 366.169C216.668 366.292 216.536 366.463 216.463 366.662C216.39 366.86 216.378 367.076 216.429 367.282C216.842 368.047 217.52 368.638 218.335 368.943L223.139 371.35C223.932 371.777 224.664 372.219 225.488 372.722C226.311 373.225 227.013 373.667 227.745 374.246C228.575 374.732 229.246 375.449 229.676 376.31C230.107 377.17 230.278 378.136 230.17 379.092C230.17 382.689 229.987 386.27 229.651 389.851C229.468 391.634 229.239 393.417 228.965 395.185L228.507 397.837C228.305 398.705 228.238 399.599 228.309 400.488C228.164 399.6 228.164 398.694 228.309 397.806L228.584 395.139C228.782 393.356 228.95 391.588 229.056 389.805C229.27 386.239 229.453 382.658 229.392 379.138C229.47 378.302 229.345 377.46 229.026 376.684C228.613 375.95 228.033 375.324 227.333 374.856C226.616 374.353 225.808 373.895 225.091 373.332C224.374 372.768 223.566 372.372 222.849 371.93L218.137 369.324C217.291 368.926 216.615 368.24 216.231 367.388C216.189 367.153 216.217 366.91 216.312 366.691C216.407 366.471 216.564 366.285 216.765 366.154C217.136 365.876 217.548 365.655 217.985 365.499Z" fill="#F28F8F"/>
<path d="M232.091 377.644C235.522 379.031 238.786 377.401 239.228 376.547C239.075 378.894 234.47 380.403 232.091 377.644Z" fill="#F28F8F"/>
<path d="M254.798 395.353C254.504 395.617 254.119 395.757 253.723 395.743C253.327 395.729 252.953 395.562 252.679 395.277C251.794 394.576 249.628 392.229 248.622 391.223C247.615 390.217 244.245 386.407 244.245 386.407L247.402 391.909C247.402 391.909 251.779 396.206 252.526 396.618C252.757 396.713 253.007 396.754 253.256 396.74C253.506 396.725 253.749 396.654 253.967 396.533C254.186 396.411 254.374 396.242 254.518 396.038C254.662 395.833 254.757 395.599 254.798 395.353Z" fill="#F28F8F"/>
</g>
<defs>
<clipPath id="clip0_419_4349">
<rect width="806" height="806" fill="white"/>
</clipPath>
</defs>
</svg>
