<svg width="806" height="806" viewBox="0 0 806 806" fill="none" xmlns="http://www.w3.org/2000/svg">
<g opacity="0.7">
<path opacity="0.2" d="M402.5 746C588.343 746 739 595.343 739 409.5C739 223.656 588.343 72.9995 402.5 72.9995C216.656 72.9995 65.9995 223.656 65.9995 409.5C65.9995 595.343 216.656 746 402.5 746Z" fill="#BA68C8"/>
<path opacity="0.2" d="M604.5 604.5C715.785 493.215 715.785 312.785 604.5 201.5C493.214 90.2146 312.785 90.2146 201.5 201.5C90.2141 312.785 90.2141 493.215 201.5 604.5C312.785 715.785 493.214 715.785 604.5 604.5Z" fill="#BA68C8"/>
<path opacity="0.2" d="M576.795 576.795C672.779 480.811 672.779 325.189 576.795 229.205C480.81 133.22 325.188 133.22 229.204 229.205C133.219 325.189 133.219 480.811 229.204 576.795C325.188 672.78 480.81 672.78 576.795 576.795Z" fill="#BA68C8"/>
<path opacity="0.2" d="M555.102 555.103C639.106 471.099 639.106 334.901 555.102 250.897C471.098 166.893 334.9 166.893 250.896 250.897C166.891 334.901 166.891 471.099 250.896 555.103C334.9 639.107 471.098 639.107 555.102 555.103Z" fill="#BA68C8"/>
</g>
</svg>
